<svg width="36" height="36" viewBox="0 0 36 36" fill="none" xmlns="http://www.w3.org/2000/svg">
<path d="M0.993652 27.4677V5.49353L32.7917 5.49353V28.4665H18.8801L9.93685 34.4594V27.4677H0.993652Z" fill="white"/>
<ellipse cx="27.4272" cy="8.61729" rx="8.57299" ry="8.61729" fill="#95A2E9"/>
<path d="M35.5 8.61729C35.5 13.1028 31.8832 16.7346 27.427 16.7346C22.9708 16.7346 19.354 13.1028 19.354 8.61729C19.354 4.1318 22.9708 0.5 27.427 0.5C31.8832 0.5 35.5 4.1318 35.5 8.61729Z" stroke="black"/>
<path fill-rule="evenodd" clip-rule="evenodd" d="M18.1368 4.88574H0.993652H0.493652V5.38574V27.6471V28.1471H0.993652H8.85222V27.1471H1.49365V5.88574H17.7988C17.8944 5.54471 18.0074 5.21104 18.1368 4.88574ZM32.2851 17.4072C32.6317 17.2133 32.9655 16.9993 33.2851 16.7667V28.0061V28.5061H32.7851H19.0149L9.14384 35.5933L8.56061 34.781L18.5624 27.6L18.6931 27.5061H18.854H32.2851V17.4072ZM14.9248 11.9897H4.92294V10.9897H14.9248V11.9897ZM17.7824 16.2983H4.92294V15.2983H17.7824V16.2983ZM22.4261 20.966H5.28015V19.966H22.4261V20.966Z" fill="black"/>
<path d="M22.0688 8.61729H32.7851M27.427 2.87244V14.3622" stroke="black"/>
</svg>
