<svg width="36" height="36" viewBox="0 0 36 36" fill="none" xmlns="http://www.w3.org/2000/svg">
<g clip-path="url(#clip0_192_5798)">
<path fill-rule="evenodd" clip-rule="evenodd" d="M7 10H25.1589V14.0714V25H18.3924C18.1503 23.3434 16.7237 22.0714 15 22.0714C13.2763 22.0714 11.8497 23.3434 11.6076 25H7V26H11.6076C11.8497 27.6566 13.2763 28.9286 15 28.9286C16.7237 28.9286 18.1503 27.6566 18.3924 26H27.6076C27.8497 27.6566 29.2763 28.9286 31 28.9286C32.7237 28.9286 34.1503 27.6566 34.3924 26H35.5714H36.0714V25.5V19.7857V19.591L35.9397 19.4475L30.6919 13.7332L30.5433 13.5714H30.3236H27.9913H26.1589V9.5V9H25.6589H7V10ZM34.3924 25H35.0714V20.2857H27.9913H27.4913V19.7857V14.5714H26.1589V25H27.6076C27.8497 23.3434 29.2763 22.0714 31 22.0714C32.7237 22.0714 34.1503 23.3434 34.3924 25ZM28.4913 19.2857V14.5714H30.1039L34.4334 19.2857H28.4913ZM3 13.4286H10.4286V12.4286H3V13.4286ZM7 17.3469V16.3469H-1V17.3469H7ZM3 22.5714H8.14286V21.5714H3V22.5714ZM15 27.9286C16.3413 27.9286 17.4286 26.8413 17.4286 25.5C17.4286 24.1587 16.3413 23.0714 15 23.0714C13.6587 23.0714 12.5714 24.1587 12.5714 25.5C12.5714 26.8413 13.6587 27.9286 15 27.9286ZM33.4286 25.5C33.4286 26.8413 32.3413 27.9286 31 27.9286C29.6587 27.9286 28.5714 26.8413 28.5714 25.5C28.5714 24.1587 29.6587 23.0714 31 23.0714C32.3413 23.0714 33.4286 24.1587 33.4286 25.5Z" fill="black"/>
</g>
<defs>
<clipPath id="clip0_192_5798">
<rect width="36" height="36" fill="white"/>
</clipPath>
</defs>
</svg>
