<svg width="36" height="36" viewBox="0 0 36 36" fill="none" xmlns="http://www.w3.org/2000/svg">
<g clip-path="url(#clip0_168_923)">
<path fill-rule="evenodd" clip-rule="evenodd" d="M4 10C4 9.72386 4.22386 9.5 4.5 9.5H21.9999C22.276 9.5 22.4999 9.72386 22.4999 10C22.4999 10.2761 22.276 10.5 21.9999 10.5H4.5C4.22386 10.5 4 10.2761 4 10ZM26.4999 10C26.4999 9.72386 26.7237 9.5 26.9999 9.5H32.4999C32.776 9.5 32.9999 9.72386 32.9999 10C32.9999 10.2761 32.776 10.5 32.4999 10.5H26.9999C26.7237 10.5 26.4999 10.2761 26.4999 10ZM4 17.5C4 17.2239 4.22386 17 4.5 17H9C9.27614 17 9.5 17.2239 9.5 17.5C9.5 17.7761 9.27614 18 9 18H4.5C4.22386 18 4 17.7761 4 17.5ZM14 17.5C14 17.2239 14.2239 17 14.5 17H32.4999C32.776 17 32.9999 17.2239 32.9999 17.5C32.9999 17.7761 32.776 18 32.4999 18H14.5C14.2239 18 14 17.7761 14 17.5ZM4 25C4 24.7239 4.22386 24.5 4.5 24.5H19C19.2761 24.5 19.5 24.7239 19.5 25C19.5 25.2761 19.2761 25.5 19 25.5H4.5C4.22386 25.5 4 25.2761 4 25ZM24 25C24 24.7239 24.2239 24.5 24.5 24.5H32.4999C32.776 24.5 32.9999 24.7239 32.9999 25C32.9999 25.2761 32.776 25.5 32.4999 25.5H24.5C24.2239 25.5 24 25.2761 24 25Z" fill="black"/>
<path fill-rule="evenodd" clip-rule="evenodd" d="M24.5 12C25.6046 12 26.5 11.1046 26.5 10C26.5 8.89543 25.6046 8 24.5 8C23.3954 8 22.5 8.89543 22.5 10C22.5 11.1046 23.3954 12 24.5 12ZM24.5 13C26.1569 13 27.5 11.6569 27.5 10C27.5 8.34315 26.1569 7 24.5 7C22.8431 7 21.5 8.34315 21.5 10C21.5 11.6569 22.8431 13 24.5 13Z" fill="black"/>
<path fill-rule="evenodd" clip-rule="evenodd" d="M12 19.5C13.1046 19.5 14 18.6046 14 17.5C14 16.3954 13.1046 15.5 12 15.5C10.8954 15.5 10 16.3954 10 17.5C10 18.6046 10.8954 19.5 12 19.5ZM12 20.5C13.6569 20.5 15 19.1569 15 17.5C15 15.8431 13.6569 14.5 12 14.5C10.3431 14.5 9 15.8431 9 17.5C9 19.1569 10.3431 20.5 12 20.5Z" fill="black"/>
<path fill-rule="evenodd" clip-rule="evenodd" d="M21.5 27C22.6046 27 23.5 26.1046 23.5 25C23.5 23.8954 22.6046 23 21.5 23C20.3954 23 19.5 23.8954 19.5 25C19.5 26.1046 20.3954 27 21.5 27ZM21.5 28C23.1569 28 24.5 26.6569 24.5 25C24.5 23.3431 23.1569 22 21.5 22C19.8431 22 18.5 23.3431 18.5 25C18.5 26.6569 19.8431 28 21.5 28Z" fill="black"/>
</g>
<defs>
<clipPath id="clip0_168_923">
<rect width="36" height="36" fill="white"/>
</clipPath>
</defs>
</svg>
