<svg width="36" height="36" viewBox="0 0 36 36" fill="none" xmlns="http://www.w3.org/2000/svg">
<path d="M13 15.9308L18.5385 22L31 8" stroke="#7F7F7F"/>
<path fill-rule="evenodd" clip-rule="evenodd" d="M29 18C29 24.0751 24.0751 29 18 29C11.9249 29 7 24.0751 7 18C7 11.9249 11.9249 7 18 7C21.1903 7 24.0633 8.3581 26.0725 10.5277L26.7403 9.77755C24.5517 7.45204 21.4454 6 18 6C11.3726 6 6 11.3726 6 18C6 24.6274 11.3726 30 18 30C24.6274 30 30 24.6274 30 18C30 16.3072 29.6495 14.6963 29.0171 13.2358L28.2764 14.0679C28.7439 15.289 29 16.6146 29 18Z" fill="#7F7F7F"/>
</svg>
