<svg width="27" height="28" viewBox="0 0 27 28" fill="none" xmlns="http://www.w3.org/2000/svg">
<path fill-rule="evenodd" clip-rule="evenodd" d="M21.1983 12.0576C21.1983 17.2232 17.0524 21.4108 11.938 21.4108C6.82368 21.4108 2.67769 17.2232 2.67769 12.0576C2.67769 6.89205 6.82368 2.70452 11.938 2.70452C17.0524 2.70452 21.1983 6.89205 21.1983 12.0576ZM19.255 21.5857C17.234 23.1712 14.6952 24.1153 11.938 24.1153C5.34483 24.1153 0 18.7169 0 12.0576C0 5.39839 5.34483 0 11.938 0C18.5312 0 23.876 5.39839 23.876 12.0576C23.876 14.9577 22.8624 17.6185 21.1734 19.6986L26.6079 25.1875C27.1307 25.7156 27.1307 26.5718 26.6079 27.0999C26.085 27.628 25.2373 27.628 24.7145 27.0999L19.255 21.5857Z" fill="black"/>
</svg>
