<svg width="36" height="36" viewBox="0 0 36 36" fill="none" xmlns="http://www.w3.org/2000/svg">
<path d="M11.6844 28.1746C11.2949 28.6345 11.058 29.2417 11.058 29.9074C11.058 31.3428 12.1594 32.5065 13.518 32.5065C14.8766 32.5065 15.978 31.3428 15.978 29.9074C15.978 29.2417 15.7411 28.6345 15.3516 28.1746M23.1644 28.1746C22.7748 28.6345 22.538 29.2417 22.538 29.9074C22.538 31.3428 23.6394 32.5065 24.998 32.5065C26.3566 32.5065 27.458 31.3428 27.458 29.9074C27.458 29.2417 27.2211 28.6345 26.8316 28.1746M1 7H5.74489L10.7449 24L8.24489 26H29.7448M10.2449 21.5H29.2448L34.5 9.5H9.24489" stroke="black" stroke-linejoin="round"/>
</svg>
