<svg width="357" height="241" viewBox="-4 -4 353 237" fill="none" xmlns="http://www.w3.org/2000/svg">
<mask id="path-1-outside-1_30_164" maskUnits="userSpaceOnUse" x="-4" y="-4" width="353" height="237" fill="black">
<rect fill="white" x="-4" y="-4" width="353" height="237"/>
<path d="M83.1 227.6C64.9 227.6 49.6 222.9 37.2 213.5C24.8 203.9 15.5 190.8 9.3 174.2C3.1 157.4 8.49366e-07 138.3 8.49366e-07 116.9C8.49366e-07 95.1 2.5 76.8 7.5 62C12.7 47 19.4 35.1 27.6 26.3C35.8 17.3 44.8 10.8 54.6 6.79999C64.6 2.79999 74.5 0.799995 84.3 0.799995C99.1 0.799995 112.6 4.69999 124.8 12.5C137.2 20.3 147.1 32.2 154.5 48.2C161.9 64.2 165.6 84.8 165.6 110C165.6 135.8 161.8 157.5 154.2 175.1C146.8 192.5 136.8 205.6 124.2 214.4C111.8 223.2 98.1 227.6 83.1 227.6ZM84.6 222.5C90 222.5 94.5 221 98.1 218C101.9 214.8 105 209.3 107.4 201.5C110 193.5 111.9 182.5 113.1 168.5C114.3 154.3 114.9 136.3 114.9 114.5C114.9 92.7 114.1 74.7 112.5 60.5C111.1 46.3 109 35.3 106.2 27.5C103.4 19.5 100 13.9 96 10.7C92.2 7.49999 87.7 5.89998 82.5 5.89998C77.7 5.89998 73.3 7.39999 69.3 10.4C65.3 13.2 61.9 18.4 59.1 26C56.5 33.6 54.4 44.3 52.8 58.1C51.4 71.9 50.7 89.8 50.7 111.8C50.7 132.8 51.4 150.5 52.8 164.9C54.4 179.1 56.7 190.4 59.7 198.8C62.7 207.2 66.3 213.3 70.5 217.1C74.7 220.7 79.4 222.5 84.6 222.5ZM263.248 228.2C253.648 228.2 245.148 227.1 237.748 224.9C230.348 222.9 223.948 220.1 218.548 216.5C213.148 212.9 208.548 208.7 204.748 203.9C200.948 199.1 197.748 193.9 195.148 188.3L198.748 186.2C203.148 193.8 208.048 200 213.448 204.8C218.848 209.6 224.648 213.1 230.848 215.3C237.048 217.3 243.448 218.3 250.048 218.3C260.048 218.3 268.248 216.1 274.648 211.7C281.048 207.1 285.848 200.8 289.048 192.8C292.248 184.8 293.848 175.6 293.848 165.2C293.848 146.2 289.348 132.9 280.348 125.3C271.348 117.7 257.348 114.8 238.348 116.6L239.548 110.6C252.348 109.4 262.548 106.9 270.148 103.1C277.748 99.3 283.248 93.6 286.648 86C290.048 78.2 291.748 68 291.748 55.4C291.748 40.6 288.548 29.1 282.148 20.9C275.748 12.5 266.548 8.29999 254.548 8.29999C247.148 8.29999 240.248 9.69999 233.848 12.5C227.648 15.1 222.748 18.4 219.148 22.4C227.748 30.8 233.748 37.4 237.148 42.2C240.548 47 242.248 51.6 242.248 56C242.248 59.2 241.448 62.2 239.848 65C238.248 67.8 235.848 70.1 232.648 71.9C229.448 73.7 225.448 74.6 220.648 74.6C215.048 74.6 210.548 73.4 207.148 71C203.748 68.6 201.348 65.6 199.948 62C198.548 58.4 197.848 54.8 197.848 51.2C197.848 42.8 200.648 34.8 206.248 27.2C212.048 19.4 220.348 13.1 231.148 8.29999C241.948 3.29999 255.048 0.799995 270.448 0.799995C283.648 0.799995 295.248 2.69999 305.248 6.49999C315.448 10.3 323.448 16.1 329.248 23.9C335.248 31.5 338.248 41 338.248 52.4C338.248 62.4 336.048 71.2 331.648 78.8C327.248 86.2 321.148 92.4 313.348 97.4C305.548 102.4 296.548 106.2 286.348 108.8V110C298.548 111.6 308.948 114.6 317.548 119C326.348 123.4 333.048 129.3 337.648 136.7C342.448 144.1 344.848 153.3 344.848 164.3C344.848 175.7 342.448 185.4 337.648 193.4C333.048 201.4 326.848 208 319.048 213.2C311.248 218.4 302.448 222.2 292.648 224.6C283.048 227 273.248 228.2 263.248 228.2Z"/>
</mask>
<path d="M37.2 213.5L34.7513 216.663L34.7674 216.675L34.7836 216.688L37.2 213.5ZM9.3 174.2L5.54739 175.585L5.5501 175.592L5.55283 175.6L9.3 174.2ZM7.5 62L3.72066 60.6898L3.71548 60.7048L3.71042 60.7197L7.5 62ZM27.6 26.3L30.5264 29.0269L30.5417 29.0105L30.5568 28.9939L27.6 26.3ZM54.6 6.79999L53.1144 3.08608L53.1014 3.09129L53.0884 3.0966L54.6 6.79999ZM124.8 12.5L122.645 15.8701L122.658 15.878L122.67 15.8858L124.8 12.5ZM154.2 175.1L150.528 173.514L150.523 173.524L150.519 173.535L154.2 175.1ZM124.2 214.4L121.91 211.121L121.897 211.129L121.885 211.138L124.2 214.4ZM98.1 218L100.661 221.073L100.669 221.066L100.677 221.06L98.1 218ZM107.4 201.5L103.596 200.264L103.586 200.294L103.577 200.324L107.4 201.5ZM113.1 168.5L117.085 168.842L117.086 168.837L113.1 168.5ZM112.5 60.5L108.519 60.8925L108.522 60.9202L108.525 60.9479L112.5 60.5ZM106.2 27.5L102.425 28.8214L102.43 28.8364L102.435 28.8515L106.2 27.5ZM96 10.7L93.4235 13.7596L93.4619 13.792L93.5012 13.8235L96 10.7ZM69.3 10.4L71.5939 13.6769L71.6476 13.6393L71.7 13.6L69.3 10.4ZM59.1 26L55.3466 24.6172L55.3305 24.661L55.3154 24.7052L59.1 26ZM52.8 58.1L48.8266 57.6393L48.8233 57.6678L48.8204 57.6963L52.8 58.1ZM52.8 164.9L48.8188 165.287L48.8217 165.317L48.8252 165.348L52.8 164.9ZM59.7 198.8L63.467 197.455L63.467 197.455L59.7 198.8ZM70.5 217.1L67.8163 220.066L67.8561 220.102L67.8968 220.137L70.5 217.1ZM83.1 223.6C65.6189 223.6 51.2079 219.099 39.6164 210.312L34.7836 216.688C47.9921 226.701 64.1811 231.6 83.1 231.6V223.6ZM39.6487 210.337C27.9109 201.25 19.0215 188.796 13.0472 172.8L5.55283 175.6C11.9785 192.804 21.6891 206.55 34.7513 216.663L39.6487 210.337ZM13.0526 172.815C7.04469 156.536 4 137.917 4 116.9H-4C-4 138.683 -0.844686 158.264 5.54739 175.585L13.0526 172.815ZM4 116.9C4 95.3766 6.47198 77.5404 11.2896 63.2803L3.71042 60.7197C-1.47198 76.0596 -4 94.8233 -4 116.9H4ZM11.2793 63.3102C16.3524 48.6764 22.8071 37.3111 30.5264 29.0269L24.6736 23.5731C15.9929 32.8889 9.0476 45.3236 3.72066 60.6898L11.2793 63.3102ZM30.5568 28.9939C38.4163 20.3677 46.9395 14.2471 56.1116 10.5034L53.0884 3.0966C42.6605 7.35289 33.1837 14.2323 24.6432 23.606L30.5568 28.9939ZM56.0856 10.5139C65.66 6.68414 75.0571 4.79999 84.3 4.79999V-3.20001C73.943 -3.20001 63.54 -1.08415 53.1144 3.08608L56.0856 10.5139ZM84.3 4.79999C98.3542 4.79999 111.104 8.49091 122.645 15.8701L126.955 9.1299C114.096 0.90907 99.8458 -3.20001 84.3 -3.20001V4.79999ZM122.67 15.8858C134.293 23.1968 143.727 34.4368 150.869 49.8791L158.131 46.5209C150.473 29.9632 140.107 17.4032 126.93 9.11415L122.67 15.8858ZM150.869 49.8791C157.945 65.1771 161.6 85.1488 161.6 110H169.6C169.6 84.4512 165.855 63.2228 158.131 46.5209L150.869 49.8791ZM161.6 110C161.6 135.433 157.851 156.556 150.528 173.514L157.872 176.686C165.749 158.444 169.6 136.167 169.6 110H161.6ZM150.519 173.535C143.345 190.403 133.767 202.839 121.91 211.121L126.49 217.679C139.833 208.361 150.255 194.597 157.881 176.665L150.519 173.535ZM121.885 211.138C110.152 219.465 97.2584 223.6 83.1 223.6V231.6C98.9416 231.6 113.448 226.935 126.515 217.662L121.885 211.138ZM84.6 226.5C90.7853 226.5 96.2342 224.762 100.661 221.073L95.5393 214.927C92.7658 217.238 89.2147 218.5 84.6 218.5V226.5ZM100.677 221.06C105.331 217.14 108.728 210.785 111.223 202.676L103.577 200.324C101.272 207.815 98.4689 212.46 95.5235 214.94L100.677 221.06ZM111.204 202.736C113.94 194.317 115.874 182.972 117.085 168.842L109.115 168.158C107.926 182.028 106.06 192.683 103.596 200.264L111.204 202.736ZM117.086 168.837C118.299 154.483 118.9 136.36 118.9 114.5H110.9C110.9 136.24 110.301 154.117 109.114 168.163L117.086 168.837ZM118.9 114.5C118.9 92.6193 118.098 74.4564 116.475 60.0521L108.525 60.9479C110.102 74.9436 110.9 92.7807 110.9 114.5H118.9ZM116.481 60.1075C115.068 45.779 112.928 34.4021 109.965 26.1485L102.435 28.8515C105.072 36.1979 107.132 46.821 108.519 60.8925L116.481 60.1075ZM109.975 26.1786C107.073 17.8856 103.353 11.4602 98.4988 7.57651L93.5012 13.8235C96.6466 16.3397 99.7271 21.1144 102.425 28.8214L109.975 26.1786ZM98.5766 7.64035C94.0196 3.80291 88.595 1.89998 82.5 1.89998V9.89998C86.805 9.89998 90.3804 11.1971 93.4235 13.7596L98.5766 7.64035ZM82.5 1.89998C76.7967 1.89998 71.5615 3.70388 66.9 7.2L71.7 13.6C75.0385 11.0961 78.6033 9.89998 82.5 9.89998V1.89998ZM67.0062 7.12307C62.0274 10.6082 58.2606 16.7077 55.3466 24.6172L62.8534 27.3828C65.5394 20.0922 68.5726 15.7918 71.5939 13.6769L67.0062 7.12307ZM55.3154 24.7052C52.5796 32.702 50.4394 43.7288 48.8266 57.6393L56.7734 58.5607C58.3606 44.8711 60.4204 34.498 62.8847 27.2947L55.3154 24.7052ZM48.8204 57.6963C47.4013 71.6844 46.7 89.7333 46.7 111.8H54.7C54.7 89.8667 55.3987 72.1156 56.7796 58.5037L48.8204 57.6963ZM46.7 111.8C46.7 132.877 47.4021 150.715 48.8188 165.287L56.7812 164.513C55.3979 150.285 54.7 132.723 54.7 111.8H46.7ZM48.8252 165.348C50.4417 179.694 52.7866 191.335 55.933 200.145L63.467 197.455C60.6134 189.465 58.3583 178.506 56.7748 164.452L48.8252 165.348ZM55.933 200.145C59.0398 208.844 62.9242 215.64 67.8163 220.066L73.1837 214.134C69.6758 210.96 66.3602 205.556 63.467 197.455L55.933 200.145ZM67.8968 220.137C72.7717 224.315 78.3811 226.5 84.6 226.5V218.5C80.4189 218.5 76.6283 217.085 73.1032 214.063L67.8968 220.137ZM237.748 224.9L238.888 221.066L238.84 221.052L238.791 221.039L237.748 224.9ZM218.548 216.5L220.766 213.172L220.766 213.172L218.548 216.5ZM204.748 203.9L201.611 206.383L201.611 206.383L204.748 203.9ZM195.148 188.3L193.132 184.845L189.986 186.68L191.52 189.984L195.148 188.3ZM198.748 186.2L202.209 184.196L200.199 180.723L196.732 182.745L198.748 186.2ZM213.448 204.8L210.79 207.79L210.79 207.79L213.448 204.8ZM230.848 215.3L229.51 219.07L229.565 219.089L229.62 219.107L230.848 215.3ZM274.648 211.7L276.914 214.996L276.948 214.972L276.982 214.948L274.648 211.7ZM289.048 192.8L292.762 194.286L292.762 194.286L289.048 192.8ZM280.348 125.3L282.928 122.244L282.928 122.244L280.348 125.3ZM238.348 116.6L234.425 115.816L233.371 121.089L238.725 120.582L238.348 116.6ZM239.548 110.6L239.174 106.617L236.209 106.895L235.625 109.816L239.548 110.6ZM270.148 103.1L268.359 99.5223L268.359 99.5223L270.148 103.1ZM286.648 86L290.299 87.6335L290.307 87.6159L290.314 87.5983L286.648 86ZM282.148 20.9L278.966 23.3242L278.98 23.3427L278.994 23.3611L282.148 20.9ZM233.848 12.5L235.395 16.1888L235.423 16.1769L235.451 16.1646L233.848 12.5ZM219.148 22.4L216.174 19.7241L213.606 22.5784L216.353 25.2615L219.148 22.4ZM237.148 42.2L233.884 44.5121L233.884 44.5121L237.148 42.2ZM232.648 71.9L234.609 75.3863L234.609 75.3863L232.648 71.9ZM207.148 71L209.454 67.7321L209.454 67.7321L207.148 71ZM199.948 62L196.22 63.4498L196.22 63.4498L199.948 62ZM206.248 27.2L203.038 24.8132L203.033 24.8202L203.027 24.8272L206.248 27.2ZM231.148 8.29999L232.772 11.9552L232.8 11.9428L232.828 11.9299L231.148 8.29999ZM305.248 6.49999L303.827 10.2391L303.839 10.2438L303.851 10.2483L305.248 6.49999ZM329.248 23.9L326.038 26.2868L326.072 26.3332L326.108 26.3786L329.248 23.9ZM331.648 78.8L335.086 80.8443L335.098 80.8243L335.109 80.8041L331.648 78.8ZM313.348 97.4L311.189 94.0325L311.189 94.0325L313.348 97.4ZM286.348 108.8L285.36 104.924L282.348 105.692V108.8H286.348ZM286.348 110H282.348V113.51L285.828 113.966L286.348 110ZM317.548 119L315.726 122.561L315.742 122.569L315.759 122.578L317.548 119ZM337.648 136.7L334.251 138.812L334.271 138.844L334.292 138.877L337.648 136.7ZM337.648 193.4L334.218 191.342L334.199 191.374L334.18 191.406L337.648 193.4ZM319.048 213.2L316.829 209.872L319.048 213.2ZM292.648 224.6L291.696 220.715L291.687 220.717L291.678 220.719L292.648 224.6ZM263.248 224.2C253.944 224.2 245.84 223.133 238.888 221.066L236.608 228.734C244.455 231.067 253.351 232.2 263.248 232.2V224.2ZM238.791 221.039C231.736 219.132 225.748 216.493 220.766 213.172L216.329 219.828C222.148 223.707 228.96 226.668 236.704 228.761L238.791 221.039ZM220.766 213.172C215.694 209.79 211.409 205.87 207.884 201.417L201.611 206.383C205.686 211.53 210.602 216.01 216.329 219.828L220.766 213.172ZM207.884 201.417C204.28 196.865 201.245 191.934 198.776 186.616L191.52 189.984C194.251 195.866 197.615 201.335 201.611 206.383L207.884 201.417ZM197.163 191.755L200.763 189.655L196.732 182.745L193.132 184.845L197.163 191.755ZM195.286 188.204C199.855 196.097 205.011 202.653 210.79 207.79L216.105 201.81C211.084 197.347 206.44 191.503 202.209 184.196L195.286 188.204ZM210.79 207.79C216.538 212.899 222.778 216.681 229.51 219.07L232.185 211.53C226.517 209.519 221.158 206.301 216.105 201.81L210.79 207.79ZM229.62 219.107C236.222 221.237 243.036 222.3 250.048 222.3V214.3C243.859 214.3 237.874 213.363 232.076 211.493L229.62 219.107ZM250.048 222.3C260.625 222.3 269.679 219.97 276.914 214.996L272.382 208.404C266.817 212.23 259.47 214.3 250.048 214.3V222.3ZM276.982 214.948C284.058 209.863 289.306 202.924 292.762 194.286L285.334 191.314C282.389 198.676 278.038 204.337 272.313 208.452L276.982 214.948ZM292.762 194.286C296.185 185.726 297.848 176.006 297.848 165.2H289.848C289.848 175.194 288.31 183.874 285.334 191.314L292.762 194.286ZM297.848 165.2C297.848 145.733 293.258 130.967 282.928 122.244L277.767 128.356C285.437 134.833 289.848 146.667 289.848 165.2H297.848ZM282.928 122.244C272.721 113.624 257.403 110.777 237.97 112.618L238.725 120.582C257.292 118.823 269.974 121.776 277.767 128.356L282.928 122.244ZM242.27 117.384L243.47 111.384L235.625 109.816L234.425 115.816L242.27 117.384ZM239.921 114.583C252.986 113.358 263.727 110.782 271.937 106.678L268.359 99.5223C261.368 103.018 251.709 105.442 239.174 106.617L239.921 114.583ZM271.937 106.678C280.345 102.474 286.513 96.096 290.299 87.6335L282.996 84.3665C279.982 91.104 275.151 96.1264 268.359 99.5223L271.937 106.678ZM290.314 87.5983C294.014 79.112 295.748 68.3088 295.748 55.4H287.748C287.748 67.6912 286.082 77.288 282.981 84.4017L290.314 87.5983ZM295.748 55.4C295.748 40.0757 292.439 27.5852 285.301 18.4389L278.994 23.3611C284.656 30.6148 287.748 41.1243 287.748 55.4H295.748ZM285.329 18.4758C278.063 8.93804 267.602 4.29999 254.548 4.29999V12.3C265.493 12.3 273.433 16.0619 278.966 23.3242L285.329 18.4758ZM254.548 4.29999C246.629 4.29999 239.18 5.8012 232.244 8.83536L235.451 16.1646C241.316 13.5988 247.666 12.3 254.548 12.3V4.29999ZM232.301 8.81121C225.689 11.5841 220.255 15.1901 216.174 19.7241L222.121 25.0758C225.24 21.6099 229.607 18.6159 235.395 16.1888L232.301 8.81121ZM216.353 25.2615C224.92 33.6291 230.703 40.0215 233.884 44.5121L240.412 39.8879C236.793 34.7785 230.576 27.9709 221.943 19.5385L216.353 25.2615ZM233.884 44.5121C236.964 48.8606 238.248 52.6663 238.248 56H246.248C246.248 50.5337 244.132 45.1394 240.412 39.8879L233.884 44.5121ZM238.248 56C238.248 58.4982 237.632 60.8149 236.375 63.0154L243.321 66.9845C245.263 63.5851 246.248 59.9018 246.248 56H238.248ZM236.375 63.0154C235.181 65.1042 233.345 66.9182 230.687 68.4137L234.609 75.3863C238.35 73.2817 241.314 70.4958 243.321 66.9845L236.375 63.0154ZM230.687 68.4137C228.242 69.7889 224.966 70.6 220.648 70.6V78.6C225.93 78.6 230.654 77.6111 234.609 75.3863L230.687 68.4137ZM220.648 70.6C215.593 70.6 211.982 69.5161 209.454 67.7321L204.841 74.2679C209.114 77.2839 214.502 78.6 220.648 78.6V70.6ZM209.454 67.7321C206.644 65.7486 204.769 63.3605 203.676 60.5502L196.22 63.4498C197.927 67.8395 200.851 71.4514 204.841 74.2679L209.454 67.7321ZM203.676 60.5502C202.442 57.3785 201.848 54.2689 201.848 51.2H193.848C193.848 55.3311 194.653 59.4215 196.22 63.4498L203.676 60.5502ZM201.848 51.2C201.848 43.7583 204.309 36.5745 209.468 29.5728L203.027 24.8272C196.987 33.0255 193.848 41.8417 193.848 51.2H201.848ZM209.458 29.5868C214.767 22.4465 222.466 16.5358 232.772 11.9552L229.523 4.64474C218.229 9.66416 209.328 16.3535 203.038 24.8132L209.458 29.5868ZM232.828 11.9299C242.971 7.23428 255.464 4.79999 270.448 4.79999V-3.20001C254.631 -3.20001 240.925 -0.634296 229.467 4.67012L232.828 11.9299ZM270.448 4.79999C283.272 4.79999 294.373 6.64668 303.827 10.2391L306.669 2.76086C296.122 -1.24669 284.024 -3.20001 270.448 -3.20001V4.79999ZM303.851 10.2483C313.418 13.8123 320.752 19.1785 326.038 26.2868L332.458 21.5132C326.143 13.0215 317.478 6.78772 306.644 2.75166L303.851 10.2483ZM326.108 26.3786C331.456 33.1525 334.248 41.7334 334.248 52.4H342.248C342.248 40.2666 339.039 29.8475 332.387 21.4214L326.108 26.3786ZM334.248 52.4C334.248 61.7955 332.187 69.8855 328.186 76.7958L335.109 80.8041C339.909 72.5145 342.248 63.0045 342.248 52.4H334.248ZM328.21 76.7557C324.151 83.5811 318.506 89.342 311.189 94.0325L315.506 100.768C323.789 95.458 330.344 88.8189 335.086 80.8443L328.21 76.7557ZM311.189 94.0325C303.795 98.7723 295.2 102.416 285.36 104.924L287.336 112.676C297.895 109.984 307.301 106.028 315.506 100.768L311.189 94.0325ZM282.348 108.8V110H290.348V108.8H282.348ZM285.828 113.966C297.692 115.522 307.628 118.418 315.726 122.561L319.37 115.439C310.268 110.782 299.403 107.678 286.868 106.034L285.828 113.966ZM315.759 122.578C323.985 126.691 330.089 132.118 334.251 138.812L341.045 134.588C336.006 126.482 328.71 120.109 319.337 115.422L315.759 122.578ZM334.292 138.877C338.578 145.485 340.848 153.882 340.848 164.3H348.848C348.848 152.718 346.317 142.715 341.004 134.523L334.292 138.877ZM340.848 164.3C340.848 175.136 338.57 184.088 334.218 191.342L341.078 195.458C346.325 186.712 348.848 176.264 348.848 164.3H340.848ZM334.18 191.406C329.893 198.862 324.124 205.009 316.829 209.872L321.266 216.528C329.572 210.991 336.203 203.938 341.115 195.394L334.18 191.406ZM316.829 209.872C309.444 214.795 301.079 218.417 291.696 220.715L293.599 228.485C303.816 225.983 313.051 222.005 321.266 216.528L316.829 209.872ZM291.678 220.719C282.398 223.039 272.924 224.2 263.248 224.2V232.2C273.571 232.2 283.697 230.961 293.618 228.481L291.678 220.719Z" fill="white" mask="url(#path-1-outside-1_30_164)"/>
</svg>
