<svg width="328" height="240" viewBox="-4 -4 324 236" fill="none" xmlns="http://www.w3.org/2000/svg">
<mask id="path-1-outside-1_30_164" maskUnits="userSpaceOnUse" x="-4" y="-4" width="324" height="236" fill="black">
<rect fill="white" x="-4" y="-4" width="324" height="236"/>
<path d="M83.1 227.6C64.9 227.6 49.6 222.9 37.2 213.5C24.8 203.9 15.5 190.8 9.3 174.2C3.1 157.4 8.49366e-07 138.3 8.49366e-07 116.9C8.49366e-07 95.1 2.5 76.8 7.5 62C12.7 47 19.4 35.1 27.6 26.3C35.8 17.3 44.8 10.8 54.6 6.79999C64.6 2.79999 74.5 0.799995 84.3 0.799995C99.1 0.799995 112.6 4.69999 124.8 12.5C137.2 20.3 147.1 32.2 154.5 48.2C161.9 64.2 165.6 84.8 165.6 110C165.6 135.8 161.8 157.5 154.2 175.1C146.8 192.5 136.8 205.6 124.2 214.4C111.8 223.2 98.1 227.6 83.1 227.6ZM84.6 222.5C90 222.5 94.5 221 98.1 218C101.9 214.8 105 209.3 107.4 201.5C110 193.5 111.9 182.5 113.1 168.5C114.3 154.3 114.9 136.3 114.9 114.5C114.9 92.7 114.1 74.7 112.5 60.5C111.1 46.3 109 35.3 106.2 27.5C103.4 19.5 100 13.9 96 10.7C92.2 7.49999 87.7 5.89998 82.5 5.89998C77.7 5.89998 73.3 7.39999 69.3 10.4C65.3 13.2 61.9 18.4 59.1 26C56.5 33.6 54.4 44.3 52.8 58.1C51.4 71.9 50.7 89.8 50.7 111.8C50.7 132.8 51.4 150.5 52.8 164.9C54.4 179.1 56.7 190.4 59.7 198.8C62.7 207.2 66.3 213.3 70.5 217.1C74.7 220.7 79.4 222.5 84.6 222.5ZM203.351 224V220.4L226.451 218.9C230.251 218.5 232.651 217.4 233.651 215.6C234.851 213.6 235.451 210.2 235.451 205.4V32.3C235.451 27.7 234.951 24.2 233.951 21.8C232.951 19.2 229.551 17.8 223.751 17.6L202.151 16.7L202.751 13.1L280.751 1.09999L284.651 4.99999V206.3C284.651 210.5 285.151 213.6 286.151 215.6C287.351 217.4 289.751 218.5 293.351 218.9L315.551 220.4V224H203.351Z"/>
</mask>
<path d="M37.2 213.5L34.7513 216.663L34.7674 216.675L34.7836 216.688L37.2 213.5ZM9.3 174.2L5.54739 175.585L5.5501 175.592L5.55283 175.6L9.3 174.2ZM7.5 62L3.72066 60.6898L3.71548 60.7048L3.71042 60.7197L7.5 62ZM27.6 26.3L30.5264 29.0269L30.5417 29.0105L30.5568 28.9939L27.6 26.3ZM54.6 6.79999L53.1144 3.08607L53.1014 3.09129L53.0884 3.0966L54.6 6.79999ZM124.8 12.5L122.645 15.8701L122.658 15.878L122.67 15.8858L124.8 12.5ZM154.2 175.1L150.528 173.514L150.523 173.524L150.519 173.535L154.2 175.1ZM124.2 214.4L121.91 211.121L121.897 211.129L121.885 211.138L124.2 214.4ZM98.1 218L100.661 221.073L100.669 221.066L100.677 221.06L98.1 218ZM107.4 201.5L103.596 200.264L103.586 200.294L103.577 200.324L107.4 201.5ZM113.1 168.5L117.085 168.842L117.086 168.837L113.1 168.5ZM112.5 60.5L108.519 60.8925L108.522 60.9202L108.525 60.9479L112.5 60.5ZM106.2 27.5L102.425 28.8214L102.43 28.8364L102.435 28.8515L106.2 27.5ZM96 10.7L93.4235 13.7596L93.4619 13.792L93.5012 13.8235L96 10.7ZM69.3 10.4L71.5939 13.6769L71.6476 13.6393L71.7 13.6L69.3 10.4ZM59.1 26L55.3466 24.6172L55.3305 24.661L55.3154 24.7052L59.1 26ZM52.8 58.1L48.8266 57.6393L48.8233 57.6678L48.8204 57.6963L52.8 58.1ZM52.8 164.9L48.8188 165.287L48.8217 165.317L48.8252 165.348L52.8 164.9ZM59.7 198.8L63.467 197.455L59.7 198.8ZM70.5 217.1L67.8163 220.066L67.8561 220.102L67.8968 220.137L70.5 217.1ZM83.1 223.6C65.6189 223.6 51.2079 219.099 39.6164 210.312L34.7836 216.688C47.9921 226.701 64.1811 231.6 83.1 231.6V223.6ZM39.6487 210.337C27.9109 201.25 19.0215 188.796 13.0472 172.8L5.55283 175.6C11.9785 192.804 21.6891 206.55 34.7513 216.663L39.6487 210.337ZM13.0526 172.815C7.04469 156.536 4 137.917 4 116.9H-4C-4 138.683 -0.844686 158.264 5.54739 175.585L13.0526 172.815ZM4 116.9C4 95.3766 6.47198 77.5404 11.2896 63.2803L3.71042 60.7197C-1.47198 76.0596 -4 94.8233 -4 116.9H4ZM11.2793 63.3102C16.3524 48.6764 22.8071 37.3111 30.5264 29.0269L24.6736 23.5731C15.9929 32.8889 9.0476 45.3236 3.72066 60.6898L11.2793 63.3102ZM30.5568 28.9939C38.4163 20.3677 46.9395 14.2471 56.1116 10.5034L53.0884 3.0966C42.6605 7.35289 33.1837 14.2323 24.6432 23.606L30.5568 28.9939ZM56.0856 10.5139C65.66 6.68414 75.0571 4.79999 84.3 4.79999V-3.2C73.943 -3.2 63.54 -1.08415 53.1144 3.08607L56.0856 10.5139ZM84.3 4.79999C98.3542 4.79999 111.104 8.49092 122.645 15.8701L126.955 9.1299C114.096 0.909073 99.8458 -3.2 84.3 -3.2V4.79999ZM122.67 15.8858C134.293 23.1968 143.727 34.4368 150.869 49.8791L158.131 46.5209C150.473 29.9632 140.107 17.4032 126.93 9.11415L122.67 15.8858ZM150.869 49.8791C157.945 65.1771 161.6 85.1488 161.6 110H169.6C169.6 84.4512 165.855 63.2228 158.131 46.5209L150.869 49.8791ZM161.6 110C161.6 135.433 157.851 156.556 150.528 173.514L157.872 176.686C165.749 158.444 169.6 136.167 169.6 110H161.6ZM150.519 173.535C143.345 190.403 133.767 202.839 121.91 211.121L126.49 217.679C139.833 208.361 150.255 194.597 157.881 176.665L150.519 173.535ZM121.885 211.138C110.152 219.465 97.2584 223.6 83.1 223.6V231.6C98.9416 231.6 113.448 226.935 126.515 217.662L121.885 211.138ZM84.6 226.5C90.7853 226.5 96.2342 224.762 100.661 221.073L95.5393 214.927C92.7658 217.238 89.2147 218.5 84.6 218.5V226.5ZM100.677 221.06C105.331 217.14 108.728 210.785 111.223 202.676L103.577 200.324C101.272 207.815 98.4689 212.46 95.5235 214.94L100.677 221.06ZM111.204 202.736C113.94 194.317 115.874 182.972 117.085 168.842L109.115 168.158C107.926 182.028 106.06 192.683 103.596 200.264L111.204 202.736ZM117.086 168.837C118.299 154.483 118.9 136.36 118.9 114.5H110.9C110.9 136.24 110.301 154.117 109.114 168.163L117.086 168.837ZM118.9 114.5C118.9 92.6193 118.098 74.4564 116.475 60.0521L108.525 60.9479C110.102 74.9436 110.9 92.7807 110.9 114.5H118.9ZM116.481 60.1075C115.068 45.779 112.928 34.4021 109.965 26.1485L102.435 28.8515C105.072 36.1979 107.132 46.821 108.519 60.8925L116.481 60.1075ZM109.975 26.1786C107.073 17.8856 103.353 11.4602 98.4988 7.57651L93.5012 13.8235C96.6466 16.3397 99.7271 21.1144 102.425 28.8214L109.975 26.1786ZM98.5766 7.64035C94.0196 3.80292 88.595 1.89998 82.5 1.89998V9.89998C86.805 9.89998 90.3804 11.1971 93.4235 13.7596L98.5766 7.64035ZM82.5 1.89998C76.7967 1.89998 71.5615 3.70387 66.9 7.2L71.7 13.6C75.0385 11.0961 78.6033 9.89998 82.5 9.89998V1.89998ZM67.0062 7.12306C62.0274 10.6082 58.2606 16.7077 55.3466 24.6172L62.8534 27.3828C65.5394 20.0922 68.5726 15.7918 71.5939 13.6769L67.0062 7.12306ZM55.3154 24.7052C52.5796 32.702 50.4394 43.7288 48.8266 57.6393L56.7734 58.5607C58.3606 44.8711 60.4204 34.498 62.8847 27.2947L55.3154 24.7052ZM48.8204 57.6963C47.4013 71.6844 46.7 89.7333 46.7 111.8H54.7C54.7 89.8667 55.3987 72.1156 56.7796 58.5037L48.8204 57.6963ZM46.7 111.8C46.7 132.877 47.4021 150.715 48.8188 165.287L56.7812 164.513C55.3979 150.285 54.7 132.723 54.7 111.8H46.7ZM48.8252 165.348C50.4417 179.694 52.7866 191.335 55.933 200.145L63.467 197.455C60.6134 189.465 58.3583 178.506 56.7748 164.452L48.8252 165.348ZM55.933 200.145C59.0398 208.844 62.9242 215.64 67.8163 220.066L73.1837 214.134C69.6758 210.96 66.3602 205.556 63.467 197.455L55.933 200.145ZM67.8968 220.137C72.7717 224.315 78.3811 226.5 84.6 226.5V218.5C80.4189 218.5 76.6283 217.085 73.1032 214.063L67.8968 220.137ZM203.351 224H199.351V228H203.351V224ZM203.351 220.4L203.092 216.408L199.351 216.651V220.4H203.351ZM226.451 218.9L226.71 222.892L226.79 222.886L226.87 222.878L226.451 218.9ZM233.651 215.6L230.221 213.542L230.187 213.599L230.154 213.657L233.651 215.6ZM233.951 21.8L230.217 23.2359L230.237 23.2875L230.258 23.3385L233.951 21.8ZM223.751 17.6L223.584 21.5965L223.599 21.5971L223.613 21.5976L223.751 17.6ZM202.151 16.7L198.205 16.0424L197.461 20.508L201.984 20.6965L202.151 16.7ZM202.751 13.1L202.143 9.14651L199.281 9.58673L198.805 12.4424L202.751 13.1ZM280.751 1.09999L283.579 -1.72844L282.146 -3.16171L280.143 -2.85349L280.751 1.09999ZM284.651 5H288.651V3.34314L287.479 2.17157L284.651 5ZM286.151 215.6L282.573 217.389L282.684 217.612L282.823 217.819L286.151 215.6ZM293.351 218.9L292.909 222.876L292.995 222.885L293.081 222.891L293.351 218.9ZM315.551 220.4H319.551V216.661L315.82 216.409L315.551 220.4ZM315.551 224V228H319.551V224H315.551ZM207.351 224V220.4H199.351V224H207.351ZM203.61 224.392L226.71 222.892L226.192 214.908L203.092 216.408L203.61 224.392ZM226.87 222.878C230.909 222.453 235.132 221.17 237.147 217.543L230.154 213.657C230.153 213.66 230.148 213.669 230.133 213.686C230.119 213.704 230.091 213.734 230.042 213.775C229.944 213.86 229.758 213.991 229.434 214.139C228.762 214.447 227.676 214.749 226.032 214.922L226.87 222.878ZM237.081 217.658C238.878 214.662 239.451 210.306 239.451 205.4H231.451C231.451 210.094 230.823 212.538 230.221 213.542L237.081 217.658ZM239.451 205.4V32.3H231.451V205.4H239.451ZM239.451 32.3C239.451 27.5154 238.946 23.3888 237.643 20.2615L230.258 23.3385C230.955 25.0111 231.451 27.8845 231.451 32.3H239.451ZM237.684 20.3641C236.675 17.7391 234.55 16.0797 232.174 15.1013C229.854 14.1461 227.022 13.7104 223.889 13.6024L223.613 21.5976C226.28 21.6896 228.047 22.0539 229.128 22.4987C229.646 22.7123 229.924 22.9109 230.06 23.0347C230.18 23.144 230.206 23.2071 230.217 23.2359L237.684 20.3641ZM223.917 13.6035L202.317 12.7035L201.984 20.6965L223.584 21.5965L223.917 13.6035ZM206.096 17.3576L206.696 13.7576L198.805 12.4424L198.205 16.0424L206.096 17.3576ZM203.359 17.0535L281.359 5.05348L280.143 -2.85349L202.143 9.14651L203.359 17.0535ZM277.922 3.92842L281.822 7.82841L287.479 2.17157L283.579 -1.72844L277.922 3.92842ZM280.651 5V206.3H288.651V5H280.651ZM280.651 206.3C280.651 210.667 281.146 214.535 282.573 217.389L289.728 213.811C289.155 212.665 288.651 210.333 288.651 206.3H280.651ZM282.823 217.819C285.011 221.102 288.903 222.43 292.909 222.876L293.793 214.924C290.599 214.57 289.691 213.698 289.479 213.381L282.823 217.819ZM293.081 222.891L315.281 224.391L315.82 216.409L293.62 214.909L293.081 222.891ZM311.551 220.4V224H319.551V220.4H311.551ZM315.551 220H203.351V228H315.551V220Z" fill="white" mask="url(#path-1-outside-1_30_164)"/>
</svg>
