<svg width="352" height="240" viewBox="-4 -4 349 236" fill="none" xmlns="http://www.w3.org/2000/svg">
<mask id="path-1-outside-1_30_164" maskUnits="userSpaceOnUse" x="-4" y="-4" width="349" height="236" fill="black">
<rect fill="white" x="-4" y="-4" width="349" height="236"/>
<path d="M83.1 227.6C64.9 227.6 49.6 222.9 37.2 213.5C24.8 203.9 15.5 190.8 9.3 174.2C3.1 157.4 8.49366e-07 138.3 8.49366e-07 116.9C8.49366e-07 95.1 2.5 76.8 7.5 62C12.7 47 19.4 35.1 27.6 26.3C35.8 17.3 44.8 10.8 54.6 6.79999C64.6 2.79999 74.5 0.799995 84.3 0.799995C99.1 0.799995 112.6 4.69999 124.8 12.5C137.2 20.3 147.1 32.2 154.5 48.2C161.9 64.2 165.6 84.8 165.6 110C165.6 135.8 161.8 157.5 154.2 175.1C146.8 192.5 136.8 205.6 124.2 214.4C111.8 223.2 98.1 227.6 83.1 227.6ZM84.6 222.5C90 222.5 94.5 221 98.1 218C101.9 214.8 105 209.3 107.4 201.5C110 193.5 111.9 182.5 113.1 168.5C114.3 154.3 114.9 136.3 114.9 114.5C114.9 92.7 114.1 74.7 112.5 60.5C111.1 46.3 109 35.3 106.2 27.5C103.4 19.5 100 13.9 96 10.7C92.2 7.49999 87.7 5.89998 82.5 5.89998C77.7 5.89998 73.3 7.39999 69.3 10.4C65.3 13.2 61.9 18.4 59.1 26C56.5 33.6 54.4 44.3 52.8 58.1C51.4 71.9 50.7 89.8 50.7 111.8C50.7 132.8 51.4 150.5 52.8 164.9C54.4 179.1 56.7 190.4 59.7 198.8C62.7 207.2 66.3 213.3 70.5 217.1C74.7 220.7 79.4 222.5 84.6 222.5ZM201.413 224L198.113 195.5C214.713 179.5 228.513 165.3 239.513 152.9C250.513 140.5 259.313 129.6 265.913 120.2C272.713 110.6 277.813 102 281.213 94.4C284.613 86.8 286.913 79.7 288.113 73.1C289.313 66.3 289.913 59.5 289.913 52.7C289.913 39.3 287.113 28.7 281.513 20.9C275.913 12.9 267.113 8.9 255.113 8.9C247.713 8.9 240.913 10.2 234.713 12.8C228.713 15.4 223.713 18.7 219.713 22.7C225.113 28.1 229.513 32.7 232.913 36.5C236.313 40.3 238.813 43.7 240.413 46.7C242.013 49.7 242.813 52.8 242.813 56C242.813 60.6 241.013 64.9 237.413 68.9C234.013 72.7 228.713 74.6 221.513 74.6C214.313 74.6 208.613 72.5 204.413 68.3C200.413 63.9 198.413 58.1 198.413 50.9C198.413 42.1 201.313 33.9 207.113 26.3C212.913 18.7 221.113 12.6 231.713 7.99999C242.513 3.19999 255.113 0.799995 269.513 0.799995C285.113 0.799995 298.113 3.29999 308.513 8.29999C318.913 13.1 326.713 19.6 331.913 27.8C337.113 36 339.713 45.1 339.713 55.1C339.713 62.5 338.813 69.5 337.013 76.1C335.213 82.5 331.813 89.2 326.813 96.2C321.813 103.2 314.613 111 305.213 119.6C296.013 128.2 284.013 138.2 269.213 149.6C254.613 161 236.413 174.4 214.613 189.8H295.613C302.213 189.8 307.413 189.5 311.213 188.9C315.213 188.3 318.513 187 321.113 185C323.713 182.8 326.013 179.5 328.013 175.1C330.213 170.5 332.713 164.4 335.513 156.8H340.313L333.713 224H201.413Z"/>
</mask>
<path d="M37.2 213.5L34.7513 216.663L34.7674 216.675L34.7836 216.688L37.2 213.5ZM9.3 174.2L5.54739 175.585L5.5501 175.592L5.55283 175.6L9.3 174.2ZM7.5 62L3.72066 60.6898L3.71548 60.7048L3.71042 60.7197L7.5 62ZM27.6 26.3L30.5264 29.0269L30.5417 29.0105L30.5568 28.9939L27.6 26.3ZM54.6 6.79999L53.1144 3.08608L53.1014 3.09129L53.0884 3.0966L54.6 6.79999ZM124.8 12.5L122.645 15.8701L122.658 15.878L122.67 15.8858L124.8 12.5ZM154.2 175.1L150.528 173.514L150.523 173.524L150.519 173.535L154.2 175.1ZM124.2 214.4L121.91 211.121L121.897 211.129L121.885 211.138L124.2 214.4ZM98.1 218L100.661 221.073L100.669 221.066L100.677 221.06L98.1 218ZM107.4 201.5L103.596 200.264L103.586 200.294L103.577 200.324L107.4 201.5ZM113.1 168.5L117.085 168.842L117.086 168.837L113.1 168.5ZM112.5 60.5L108.519 60.8925L108.522 60.9202L108.525 60.9479L112.5 60.5ZM106.2 27.5L102.425 28.8214L102.43 28.8364L102.435 28.8515L106.2 27.5ZM96 10.7L93.4235 13.7596L93.4619 13.792L93.5012 13.8235L96 10.7ZM69.3 10.4L71.5939 13.6769L71.6476 13.6393L71.7 13.6L69.3 10.4ZM59.1 26L55.3466 24.6172L55.3305 24.661L55.3154 24.7052L59.1 26ZM52.8 58.1L48.8266 57.6393L48.8233 57.6678L48.8204 57.6963L52.8 58.1ZM52.8 164.9L48.8188 165.287L48.8217 165.317L48.8252 165.348L52.8 164.9ZM59.7 198.8L63.467 197.455L63.467 197.455L59.7 198.8ZM70.5 217.1L67.8163 220.066L67.8561 220.102L67.8968 220.137L70.5 217.1ZM83.1 223.6C65.6189 223.6 51.2079 219.099 39.6164 210.312L34.7836 216.688C47.9921 226.701 64.1811 231.6 83.1 231.6V223.6ZM39.6487 210.337C27.9109 201.25 19.0215 188.796 13.0472 172.8L5.55283 175.6C11.9785 192.804 21.6891 206.55 34.7513 216.663L39.6487 210.337ZM13.0526 172.815C7.04469 156.536 4 137.917 4 116.9H-4C-4 138.683 -0.844686 158.264 5.54739 175.585L13.0526 172.815ZM4 116.9C4 95.3766 6.47198 77.5404 11.2896 63.2803L3.71042 60.7197C-1.47198 76.0596 -4 94.8233 -4 116.9H4ZM11.2793 63.3102C16.3524 48.6764 22.8071 37.3111 30.5264 29.0269L24.6736 23.5731C15.9929 32.8889 9.0476 45.3236 3.72066 60.6898L11.2793 63.3102ZM30.5568 28.9939C38.4163 20.3677 46.9395 14.2471 56.1116 10.5034L53.0884 3.0966C42.6605 7.35289 33.1837 14.2323 24.6432 23.606L30.5568 28.9939ZM56.0856 10.5139C65.66 6.68414 75.0571 4.79999 84.3 4.79999V-3.20001C73.943 -3.20001 63.54 -1.08415 53.1144 3.08608L56.0856 10.5139ZM84.3 4.79999C98.3542 4.79999 111.104 8.49091 122.645 15.8701L126.955 9.1299C114.096 0.90907 99.8458 -3.20001 84.3 -3.20001V4.79999ZM122.67 15.8858C134.293 23.1968 143.727 34.4368 150.869 49.8791L158.131 46.5209C150.473 29.9632 140.107 17.4032 126.93 9.11415L122.67 15.8858ZM150.869 49.8791C157.945 65.1771 161.6 85.1488 161.6 110H169.6C169.6 84.4512 165.855 63.2228 158.131 46.5209L150.869 49.8791ZM161.6 110C161.6 135.433 157.851 156.556 150.528 173.514L157.872 176.686C165.749 158.444 169.6 136.167 169.6 110H161.6ZM150.519 173.535C143.345 190.403 133.767 202.839 121.91 211.121L126.49 217.679C139.833 208.361 150.255 194.597 157.881 176.665L150.519 173.535ZM121.885 211.138C110.152 219.465 97.2584 223.6 83.1 223.6V231.6C98.9416 231.6 113.448 226.935 126.515 217.662L121.885 211.138ZM84.6 226.5C90.7853 226.5 96.2342 224.762 100.661 221.073L95.5393 214.927C92.7658 217.238 89.2147 218.5 84.6 218.5V226.5ZM100.677 221.06C105.331 217.14 108.728 210.785 111.223 202.676L103.577 200.324C101.272 207.815 98.4689 212.46 95.5235 214.94L100.677 221.06ZM111.204 202.736C113.94 194.317 115.874 182.972 117.085 168.842L109.115 168.158C107.926 182.028 106.06 192.683 103.596 200.264L111.204 202.736ZM117.086 168.837C118.299 154.483 118.9 136.36 118.9 114.5H110.9C110.9 136.24 110.301 154.117 109.114 168.163L117.086 168.837ZM118.9 114.5C118.9 92.6193 118.098 74.4564 116.475 60.0521L108.525 60.9479C110.102 74.9436 110.9 92.7807 110.9 114.5H118.9ZM116.481 60.1075C115.068 45.779 112.928 34.4021 109.965 26.1485L102.435 28.8515C105.072 36.1979 107.132 46.821 108.519 60.8925L116.481 60.1075ZM109.975 26.1786C107.073 17.8856 103.353 11.4602 98.4988 7.57651L93.5012 13.8235C96.6466 16.3397 99.7271 21.1144 102.425 28.8214L109.975 26.1786ZM98.5766 7.64035C94.0196 3.80291 88.595 1.89998 82.5 1.89998V9.89998C86.805 9.89998 90.3804 11.1971 93.4235 13.7596L98.5766 7.64035ZM82.5 1.89998C76.7967 1.89998 71.5615 3.70388 66.9 7.2L71.7 13.6C75.0385 11.0961 78.6033 9.89998 82.5 9.89998V1.89998ZM67.0062 7.12307C62.0274 10.6082 58.2606 16.7077 55.3466 24.6172L62.8534 27.3828C65.5394 20.0922 68.5726 15.7918 71.5939 13.6769L67.0062 7.12307ZM55.3154 24.7052C52.5796 32.702 50.4394 43.7288 48.8266 57.6393L56.7734 58.5607C58.3606 44.8711 60.4204 34.498 62.8847 27.2947L55.3154 24.7052ZM48.8204 57.6963C47.4013 71.6844 46.7 89.7333 46.7 111.8H54.7C54.7 89.8667 55.3987 72.1156 56.7796 58.5037L48.8204 57.6963ZM46.7 111.8C46.7 132.877 47.4021 150.715 48.8188 165.287L56.7812 164.513C55.3979 150.285 54.7 132.723 54.7 111.8H46.7ZM48.8252 165.348C50.4417 179.694 52.7866 191.335 55.933 200.145L63.467 197.455C60.6134 189.465 58.3583 178.506 56.7748 164.452L48.8252 165.348ZM55.933 200.145C59.0398 208.844 62.9242 215.64 67.8163 220.066L73.1837 214.134C69.6758 210.96 66.3602 205.556 63.467 197.455L55.933 200.145ZM67.8968 220.137C72.7717 224.315 78.3811 226.5 84.6 226.5V218.5C80.4189 218.5 76.6283 217.085 73.1032 214.063L67.8968 220.137ZM201.413 224L197.439 224.46L197.849 228H201.413V224ZM198.113 195.5L195.337 192.62L193.911 193.994L194.139 195.96L198.113 195.5ZM239.513 152.9L236.52 150.246L236.52 150.246L239.513 152.9ZM265.913 120.2L262.648 117.888L262.644 117.895L262.639 117.901L265.913 120.2ZM281.213 94.4L284.864 96.0335L284.864 96.0335L281.213 94.4ZM288.113 73.1L292.048 73.8155L292.05 73.8053L292.052 73.7951L288.113 73.1ZM281.513 20.9L278.236 23.1938L278.249 23.2134L278.263 23.2328L281.513 20.9ZM234.713 12.8L233.166 9.1112L233.144 9.12035L233.122 9.12976L234.713 12.8ZM219.713 22.7L216.884 19.8716L214.056 22.7L216.884 25.5284L219.713 22.7ZM232.913 36.5L229.932 39.1672L229.932 39.1672L232.913 36.5ZM237.413 68.9L234.439 66.2241L234.432 66.2328L237.413 68.9ZM204.413 68.3L201.453 70.9907L201.517 71.0611L201.584 71.1284L204.413 68.3ZM231.713 7.99999L233.305 11.6694L233.321 11.6624L233.337 11.6552L231.713 7.99999ZM308.513 8.29999L306.779 11.905L306.808 11.9186L306.836 11.9318L308.513 8.29999ZM337.013 76.1L340.863 77.183L340.867 77.1677L340.872 77.1525L337.013 76.1ZM305.213 119.6L302.512 116.649L302.497 116.663L302.481 116.678L305.213 119.6ZM269.213 149.6L266.772 146.431L266.761 146.439L266.751 146.447L269.213 149.6ZM214.613 189.8L212.305 186.533L202.017 193.8H214.613V189.8ZM311.213 188.9L310.619 184.944L310.604 184.947L310.589 184.949L311.213 188.9ZM321.113 185L323.551 188.17L323.625 188.114L323.696 188.054L321.113 185ZM328.013 175.1L324.404 173.374L324.387 173.409L324.371 173.445L328.013 175.1ZM335.513 156.8V152.8H332.723L331.759 155.417L335.513 156.8ZM340.313 156.8L344.293 157.191L344.725 152.8H340.313V156.8ZM333.713 224V228H337.339L337.693 224.391L333.713 224ZM205.386 223.54L202.086 195.04L194.139 195.96L197.439 224.46L205.386 223.54ZM200.888 198.38C217.537 182.333 231.415 168.056 242.505 155.554L236.52 150.246C225.61 162.544 211.888 176.667 195.337 192.62L200.888 198.38ZM242.505 155.554C253.565 143.086 262.47 132.063 269.186 122.499L262.639 117.901C256.155 127.137 247.46 137.914 236.52 150.246L242.505 155.554ZM269.177 122.512C276.071 112.779 281.324 103.947 284.864 96.0335L277.561 92.7665C274.301 100.053 269.354 108.421 262.648 117.888L269.177 122.512ZM284.864 96.0335C288.365 88.2073 290.779 80.7969 292.048 73.8155L284.177 72.3845C283.046 78.6031 280.86 85.3927 277.561 92.7665L284.864 96.0335ZM292.052 73.7951C293.292 66.7692 293.913 59.7366 293.913 52.7H285.913C285.913 59.2634 285.333 65.8308 284.173 72.4049L292.052 73.7951ZM293.913 52.7C293.913 38.7848 291.009 27.2686 284.762 18.5672L278.263 23.2328C283.216 30.1313 285.913 39.8152 285.913 52.7H293.913ZM284.789 18.6061C278.266 9.28737 268.08 4.9 255.113 4.9V12.9C266.145 12.9 273.559 16.5126 278.236 23.1938L284.789 18.6061ZM255.113 4.9C247.235 4.9 239.903 6.28599 233.166 9.1112L236.259 16.4888C241.922 14.114 248.19 12.9 255.113 12.9V4.9ZM233.122 9.12976C226.731 11.8991 221.291 15.4646 216.884 19.8716L222.541 25.5284C226.134 21.9354 230.694 18.9008 236.303 16.4702L233.122 9.12976ZM216.884 25.5284C222.255 30.899 226.599 35.4421 229.932 39.1672L235.893 33.8328C232.426 29.9579 227.97 25.3009 222.541 19.8716L216.884 25.5284ZM229.932 39.1672C233.213 42.8346 235.489 45.9678 236.883 48.5823L243.942 44.8176C242.136 41.4322 239.412 37.7654 235.893 33.8328L229.932 39.1672ZM236.883 48.5823C238.194 51.0403 238.813 53.4976 238.813 56H246.813C246.813 52.1024 245.831 48.3597 243.942 44.8176L236.883 48.5823ZM238.813 56C238.813 59.447 237.498 62.8261 234.439 66.2241L240.386 71.5759C244.527 66.9739 246.813 61.753 246.813 56H238.813ZM234.432 66.2328C232.062 68.8814 228.057 70.6 221.513 70.6V78.6C229.368 78.6 235.963 76.5186 240.393 71.5672L234.432 66.2328ZM221.513 70.6C215.133 70.6 210.537 68.7671 207.241 65.4716L201.584 71.1284C206.688 76.2328 213.492 78.6 221.513 78.6V70.6ZM207.372 65.6093C204.177 62.094 202.413 57.3256 202.413 50.9H194.413C194.413 58.8744 196.648 65.706 201.453 70.9907L207.372 65.6093ZM202.413 50.9C202.413 43.0541 204.976 35.6935 210.292 28.7267L203.933 23.8733C197.649 32.1065 194.413 41.1459 194.413 50.9H202.413ZM210.292 28.7267C215.6 21.7723 223.201 16.054 233.305 11.6694L230.12 4.33061C219.024 9.14601 210.225 15.6277 203.933 23.8733L210.292 28.7267ZM233.337 11.6552C243.527 7.12652 255.553 4.79999 269.513 4.79999V-3.20001C254.672 -3.20001 241.498 -0.726536 230.088 4.34474L233.337 11.6552ZM269.513 4.79999C284.713 4.79999 297.076 7.23972 306.779 11.905L310.246 4.69498C299.149 -0.63974 285.512 -3.20001 269.513 -3.20001V4.79999ZM306.836 11.9318C316.665 16.4682 323.816 22.5014 328.534 29.9422L335.291 25.6578C329.609 16.6985 321.16 9.73173 310.189 4.66815L306.836 11.9318ZM328.534 29.9422C333.316 37.4816 335.713 45.8347 335.713 55.1H343.713C343.713 44.3653 340.909 34.5184 335.291 25.6578L328.534 29.9422ZM335.713 55.1C335.713 62.1733 334.853 68.8173 333.153 75.0475L340.872 77.1525C342.772 70.1827 343.713 62.8267 343.713 55.1H335.713ZM333.162 75.017C331.518 80.8625 328.364 87.1465 323.558 93.875L330.067 98.5249C335.261 91.2535 338.907 84.1375 340.863 77.183L333.162 75.017ZM323.558 93.875C318.778 100.567 311.795 108.157 302.512 116.649L307.913 122.551C317.43 113.843 324.847 105.833 330.067 98.5249L323.558 93.875ZM302.481 116.678C293.407 125.16 281.514 135.075 266.772 146.431L271.653 152.769C286.511 141.325 298.618 131.24 307.944 122.522L302.481 116.678ZM266.751 146.447C252.218 157.795 234.073 171.155 212.305 186.533L216.92 193.067C238.752 177.645 257.007 164.205 271.674 152.753L266.751 146.447ZM214.613 193.8H295.613V185.8H214.613V193.8ZM295.613 193.8C302.296 193.8 307.735 193.499 311.836 192.851L310.589 184.949C307.09 185.501 302.129 185.8 295.613 185.8V193.8ZM311.806 192.856C316.323 192.178 320.301 190.671 323.551 188.17L318.674 181.83C316.724 183.329 314.102 184.422 310.619 184.944L311.806 192.856ZM323.696 188.054C326.896 185.346 329.505 181.484 331.654 176.755L324.371 173.445C322.52 177.516 320.529 180.254 318.529 181.946L323.696 188.054ZM331.621 176.826C333.896 172.069 336.445 165.84 339.266 158.183L331.759 155.417C328.98 162.96 326.529 168.931 324.404 173.374L331.621 176.826ZM335.513 160.8H340.313V152.8H335.513V160.8ZM336.332 156.409L329.732 223.609L337.693 224.391L344.293 157.191L336.332 156.409ZM333.713 220H201.413V228H333.713V220Z" fill="white" mask="url(#path-1-outside-1_30_164)"/>
</svg>
