<svg width="302" height="302" viewBox="0 0 302 302" fill="none" xmlns="http://www.w3.org/2000/svg">
<circle cx="151" cy="151" r="151" fill="#9A9480"/>
<path d="M50.776 146V144.912L54.488 144.592C55.2987 144.507 55.832 144.251 56.088 143.824C56.344 143.355 56.472 142.523 56.472 141.328V103.952C56.472 102.885 56.3227 102.139 56.024 101.712C55.768 101.243 55.2133 100.987 54.36 100.944L50.776 100.688V99.536H69.08V100.688L64.856 100.944C64.1307 100.987 63.5973 101.2 63.256 101.584C62.9573 101.925 62.808 102.715 62.808 103.952V144.592H70.616C72.152 144.592 73.4533 144.443 74.52 144.144C75.6293 143.845 76.568 143.312 77.336 142.544C78.1467 141.733 78.872 140.603 79.512 139.152C80.152 137.659 80.792 135.717 81.432 133.328H82.648L81.048 146H50.776ZM110.981 146.896C108.08 146.896 105.541 146.256 103.365 144.976C101.189 143.696 99.5037 141.84 98.309 139.408C97.1143 136.933 96.517 133.904 96.517 130.32C96.517 126.437 97.157 123.173 98.437 120.528C99.717 117.84 101.509 115.813 103.813 114.448C106.117 113.04 108.805 112.336 111.877 112.336C114.224 112.336 116.25 112.805 117.957 113.744C119.706 114.683 121.05 116.027 121.989 117.776C122.928 119.483 123.397 121.488 123.397 123.792C123.397 124.475 123.376 125.157 123.333 125.84C123.29 126.48 123.205 127.141 123.077 127.824H102.853C102.768 131.28 103.13 134.096 103.941 136.272C104.794 138.405 105.989 139.984 107.525 141.008C109.104 141.989 110.917 142.48 112.965 142.48C114.757 142.48 116.442 142.203 118.021 141.648C119.6 141.051 121.221 139.941 122.885 138.32L123.653 139.024C121.989 141.84 120.112 143.867 118.021 145.104C115.93 146.299 113.584 146.896 110.981 146.896ZM102.917 126.416H117.189C117.232 126.032 117.253 125.605 117.253 125.136C117.296 124.624 117.317 124.091 117.317 123.536C117.317 119.824 116.826 117.243 115.845 115.792C114.864 114.341 113.349 113.616 111.301 113.616C109.637 113.616 108.208 114.043 107.013 114.896C105.861 115.707 104.944 117.051 104.261 118.928C103.578 120.805 103.13 123.301 102.917 126.416ZM146.806 146.896C143.99 146.896 141.793 146.149 140.214 144.656C138.678 143.12 137.91 140.987 137.91 138.256C137.91 136.08 138.465 134.309 139.574 132.944C140.683 131.536 142.539 130.448 145.142 129.68C147.787 128.912 151.371 128.443 155.894 128.272V120.976C155.894 119.227 155.659 117.819 155.19 116.752C154.763 115.643 154.081 114.853 153.142 114.384C152.203 113.872 150.966 113.616 149.43 113.616C148.022 113.616 146.635 113.851 145.27 114.32C143.947 114.747 142.945 115.301 142.262 115.984C142.945 116.795 143.478 117.52 143.862 118.16C144.289 118.8 144.587 119.355 144.758 119.824C144.971 120.251 145.078 120.635 145.078 120.976C145.078 121.701 144.758 122.363 144.118 122.96C143.478 123.515 142.625 123.792 141.558 123.792C140.406 123.792 139.531 123.493 138.934 122.896C138.337 122.299 138.038 121.467 138.038 120.4C138.038 119.035 138.593 117.733 139.702 116.496C140.811 115.259 142.283 114.256 144.118 113.488C145.953 112.72 147.915 112.336 150.006 112.336C152.694 112.336 154.913 112.763 156.662 113.616C158.411 114.427 159.713 115.685 160.566 117.392C161.419 119.099 161.846 121.253 161.846 123.856V140.88C161.846 142.032 162.102 142.864 162.614 143.376C163.169 143.845 163.873 144.08 164.726 144.08C165.195 144.08 165.707 144.016 166.262 143.888C166.817 143.717 167.371 143.483 167.926 143.184L168.31 143.952C167.329 145.061 166.326 145.829 165.302 146.256C164.278 146.683 163.254 146.896 162.23 146.896C160.31 146.896 158.881 146.384 157.942 145.36C157.003 144.336 156.449 142.779 156.278 140.688C155.553 142.224 154.721 143.461 153.782 144.4C152.843 145.296 151.798 145.936 150.646 146.32C149.537 146.704 148.257 146.896 146.806 146.896ZM149.43 144.144C150.71 144.144 151.841 143.845 152.822 143.248C153.803 142.608 154.55 141.755 155.062 140.688C155.617 139.579 155.894 138.341 155.894 136.976V129.488C153.078 129.531 150.795 129.808 149.046 130.32C147.297 130.832 146.038 131.664 145.27 132.816C144.502 133.968 144.118 135.547 144.118 137.552C144.118 139.643 144.566 141.264 145.462 142.416C146.401 143.568 147.723 144.144 149.43 144.144ZM179.152 146V144.912L182.224 144.464C182.907 144.379 183.355 144.123 183.568 143.696C183.782 143.269 183.888 142.501 183.888 141.392V118.736C183.888 117.243 183.76 116.219 183.504 115.664C183.248 115.109 182.651 114.811 181.712 114.768L178.512 114.512L178.64 113.488L189.136 112.912L189.52 113.232L189.584 119.504H189.712C190.694 117.2 191.995 115.429 193.616 114.192C195.28 112.955 197.051 112.336 198.928 112.336C200.934 112.336 202.512 112.848 203.664 113.872C204.859 114.896 205.456 116.197 205.456 117.776C205.456 118.629 205.307 119.397 205.008 120.08C204.71 120.763 204.24 121.296 203.6 121.68C202.96 122.064 202.171 122.256 201.232 122.256C199.995 122.256 199.056 121.979 198.416 121.424C197.819 120.869 197.52 120.229 197.52 119.504C197.52 119.077 197.606 118.651 197.776 118.224C197.99 117.797 198.246 117.328 198.544 116.816C198.886 116.261 199.291 115.643 199.76 114.96C198.608 114.619 197.456 114.619 196.304 114.96C195.152 115.259 194.086 115.835 193.104 116.688C192.123 117.541 191.334 118.608 190.736 119.888C190.139 121.168 189.84 122.619 189.84 124.24V141.52C189.84 142.501 189.926 143.184 190.096 143.568C190.31 143.952 190.758 144.187 191.44 144.272L196.944 144.976V146H179.152ZM217.535 146V144.912L220.607 144.464C221.29 144.379 221.738 144.123 221.951 143.696C222.164 143.269 222.271 142.501 222.271 141.392V118.736C222.271 117.243 222.143 116.219 221.887 115.664C221.631 115.109 221.034 114.811 220.095 114.768L216.895 114.448L217.023 113.488L227.519 112.912L227.903 113.232L227.967 119.44H228.031C229.012 117.093 230.506 115.323 232.511 114.128C234.516 112.933 236.65 112.336 238.911 112.336C241.087 112.336 242.9 112.763 244.351 113.616C245.844 114.427 246.954 115.643 247.679 117.264C248.447 118.885 248.831 120.891 248.831 123.28V141.904C248.831 142.843 248.959 143.504 249.215 143.888C249.471 144.229 250.004 144.443 250.815 144.528L253.823 144.912V146H238.143V144.976L240.959 144.592C241.77 144.507 242.282 144.272 242.495 143.888C242.751 143.504 242.879 142.843 242.879 141.904V123.344C242.879 121.339 242.687 119.739 242.303 118.544C241.962 117.307 241.343 116.432 240.447 115.92C239.551 115.365 238.292 115.088 236.671 115.088C235.05 115.088 233.599 115.451 232.319 116.176C231.039 116.901 230.036 117.925 229.311 119.248C228.586 120.571 228.223 122.128 228.223 123.92V141.648C228.223 142.587 228.33 143.269 228.543 143.696C228.756 144.08 229.183 144.315 229.823 144.4L233.215 144.976V146H217.535ZM50.456 212V210.912L54.36 210.336C55.1707 210.208 55.6827 209.909 55.896 209.44C56.152 208.971 56.3013 208.181 56.344 207.072L58.584 170.272C58.6693 169.163 58.5627 168.416 58.264 168.032C57.9653 167.648 57.3893 167.392 56.536 167.264L52.44 166.688V165.536H66.008L78.808 199.648L78.936 199.584L91.544 165.536H104.664V166.688L100.632 167.264C100.035 167.349 99.544 167.563 99.16 167.904C98.776 168.245 98.6267 169.12 98.712 170.528L100.952 207.392C101.037 208.459 101.187 209.205 101.4 209.632C101.656 210.016 102.189 210.272 103 210.4L106.776 210.976V212H88.664V210.912L92.632 210.336C93.4427 210.208 93.9973 209.931 94.296 209.504C94.5947 209.077 94.7013 208.267 94.616 207.072L92.44 168.672L92.376 168.608L78.936 204.768H74.648L60.632 168.608L60.568 168.672L58.328 207.392C58.2853 208.416 58.392 209.141 58.648 209.568C58.904 209.952 59.48 210.229 60.376 210.4L64.216 210.976V212H50.456ZM135.374 212.896C132.302 212.896 129.614 212.235 127.31 210.912C125.049 209.547 123.278 207.627 121.998 205.152C120.761 202.677 120.142 199.733 120.142 196.32C120.142 192.608 120.803 189.408 122.126 186.72C123.449 184.032 125.305 181.963 127.694 180.512C130.126 179.061 132.985 178.336 136.27 178.336C139.299 178.336 141.923 179.019 144.142 180.384C146.361 181.707 148.089 183.605 149.326 186.08C150.563 188.512 151.182 191.392 151.182 194.72C151.182 198.432 150.521 201.653 149.198 204.384C147.918 207.072 146.083 209.163 143.694 210.656C141.347 212.149 138.574 212.896 135.374 212.896ZM136.462 211.36C138.211 211.36 139.705 210.848 140.942 209.824C142.179 208.8 143.097 207.2 143.694 205.024C144.334 202.805 144.654 199.904 144.654 196.32C144.654 193.504 144.441 191.072 144.014 189.024C143.587 186.933 142.947 185.227 142.094 183.904C141.283 182.539 140.281 181.536 139.086 180.896C137.934 180.213 136.611 179.872 135.118 179.872C133.283 179.872 131.726 180.363 130.446 181.344C129.209 182.325 128.249 183.883 127.566 186.016C126.926 188.149 126.606 190.965 126.606 194.464C126.606 198.347 127.011 201.547 127.822 204.064C128.675 206.539 129.827 208.373 131.278 209.568C132.771 210.763 134.499 211.36 136.462 211.36ZM164.832 212V210.912L167.904 210.464C168.587 210.379 169.035 210.123 169.248 209.696C169.462 209.269 169.568 208.501 169.568 207.392V184.736C169.568 183.243 169.44 182.219 169.184 181.664C168.928 181.109 168.331 180.811 167.392 180.768L164.192 180.512L164.32 179.488L174.816 178.912L175.201 179.232L175.264 185.504H175.392C176.374 183.2 177.675 181.429 179.297 180.192C180.961 178.955 182.731 178.336 184.608 178.336C186.614 178.336 188.193 178.848 189.345 179.872C190.539 180.896 191.137 182.197 191.137 183.776C191.137 184.629 190.987 185.397 190.689 186.08C190.39 186.763 189.921 187.296 189.281 187.68C188.641 188.064 187.851 188.256 186.913 188.256C185.675 188.256 184.737 187.979 184.097 187.424C183.499 186.869 183.201 186.229 183.201 185.504C183.201 185.077 183.286 184.651 183.457 184.224C183.67 183.797 183.926 183.328 184.225 182.816C184.566 182.261 184.971 181.643 185.441 180.96C184.288 180.619 183.137 180.619 181.985 180.96C180.833 181.259 179.766 181.835 178.785 182.688C177.803 183.541 177.014 184.608 176.417 185.888C175.819 187.168 175.521 188.619 175.521 190.24V207.52C175.521 208.501 175.606 209.184 175.776 209.568C175.99 209.952 176.438 210.187 177.121 210.272L182.625 210.976V212H164.832ZM217.246 212.896C214.345 212.896 211.806 212.256 209.63 210.976C207.454 209.696 205.769 207.84 204.574 205.408C203.379 202.933 202.782 199.904 202.782 196.32C202.782 192.437 203.422 189.173 204.702 186.528C205.982 183.84 207.774 181.813 210.078 180.448C212.382 179.04 215.07 178.336 218.142 178.336C220.489 178.336 222.515 178.805 224.222 179.744C225.971 180.683 227.315 182.027 228.254 183.776C229.193 185.483 229.662 187.488 229.662 189.792C229.662 190.475 229.641 191.157 229.598 191.84C229.555 192.48 229.47 193.141 229.342 193.824H209.118C209.033 197.28 209.395 200.096 210.206 202.272C211.059 204.405 212.254 205.984 213.79 207.008C215.369 207.989 217.182 208.48 219.23 208.48C221.022 208.48 222.707 208.203 224.286 207.648C225.865 207.051 227.486 205.941 229.15 204.32L229.918 205.024C228.254 207.84 226.377 209.867 224.286 211.104C222.195 212.299 219.849 212.896 217.246 212.896ZM209.182 192.416H223.454C223.497 192.032 223.518 191.605 223.518 191.136C223.561 190.624 223.582 190.091 223.582 189.536C223.582 185.824 223.091 183.243 222.11 181.792C221.129 180.341 219.614 179.616 217.566 179.616C215.902 179.616 214.473 180.043 213.278 180.896C212.126 181.707 211.209 183.051 210.526 184.928C209.843 186.805 209.395 189.301 209.182 192.416Z" fill="white"/>
</svg>
