<svg width="294" height="161" viewBox="0 0 294 161" fill="none" xmlns="http://www.w3.org/2000/svg">
<path d="M0.380052 28V26.704L2.50405 26.38C2.98405 26.308 3.28405 26.128 3.40405 25.84C3.52405 25.552 3.59605 25.12 3.62005 24.544L4.73605 5.752C4.78405 5.152 4.72405 4.744 4.55605 4.528C4.41205 4.288 4.10005 4.132 3.62005 4.06L1.49605 3.736V2.44H9.56005L16.1121 21.052L16.2201 20.8L22.9161 2.44H30.8721V3.736L28.6041 4.06C28.2201 4.108 27.9441 4.24 27.7761 4.456C27.6081 4.672 27.5361 5.152 27.5601 5.896L28.6761 24.688C28.7001 25.312 28.7841 25.744 28.9281 25.984C29.0961 26.2 29.3961 26.332 29.8281 26.38L32.0241 26.704V28H21.7641V26.704L23.9961 26.38C24.4521 26.308 24.7641 26.152 24.9321 25.912C25.1001 25.672 25.1601 25.216 25.1121 24.544L23.9961 4.996L23.9601 4.816L16.9041 23.932H13.7721L6.75205 4.78V4.96L5.60005 24.688C5.57605 25.192 5.61205 25.588 5.70805 25.876C5.82805 26.14 6.17605 26.308 6.75205 26.38L8.80405 26.704V28H0.380052ZM53.3931 28.504C51.6411 28.504 50.1051 28.132 48.7851 27.388C47.4891 26.62 46.4811 25.552 45.7611 24.184C45.0651 22.792 44.7171 21.148 44.7171 19.252C44.7171 17.164 45.0891 15.376 45.8331 13.888C46.5771 12.376 47.6331 11.212 49.0011 10.396C50.3931 9.58 52.0251 9.172 53.8971 9.172C55.6251 9.172 57.1131 9.544 58.3611 10.288C59.6331 11.032 60.6171 12.1 61.3131 13.492C62.0091 14.86 62.3571 16.48 62.3571 18.352C62.3571 20.416 61.9851 22.216 61.2411 23.752C60.5211 25.264 59.4891 26.44 58.1451 27.28C56.8011 28.096 55.2171 28.504 53.3931 28.504ZM53.9331 26.812C54.9651 26.812 55.8291 26.536 56.5251 25.984C57.2451 25.432 57.7851 24.592 58.1451 23.464C58.5051 22.336 58.6851 20.92 58.6851 19.216C58.6851 17.848 58.5651 16.648 58.3251 15.616C58.0851 14.56 57.7251 13.684 57.2451 12.988C56.7891 12.268 56.2251 11.728 55.5531 11.368C54.8811 10.984 54.1251 10.792 53.2851 10.792C52.2291 10.792 51.3291 11.068 50.5851 11.62C49.8651 12.148 49.3131 12.952 48.9291 14.032C48.5451 15.112 48.3531 16.492 48.3531 18.172C48.3531 20.044 48.5811 21.628 49.0371 22.924C49.4931 24.196 50.1411 25.168 50.9811 25.84C51.8211 26.488 52.8051 26.812 53.9331 26.812ZM82.8766 28.504C81.3166 28.504 79.9846 28.156 78.8806 27.46C77.8006 26.74 76.9606 25.708 76.3606 24.364C75.7846 22.996 75.4966 21.34 75.4966 19.396C75.4966 17.284 75.8446 15.472 76.5406 13.96C77.2606 12.424 78.2686 11.248 79.5646 10.432C80.8846 9.592 82.4446 9.172 84.2446 9.172C85.0606 9.172 85.8646 9.28 86.6566 9.496C87.4726 9.712 88.1566 10 88.7086 10.36V4.24C88.7086 3.424 88.6126 2.884 88.4206 2.62C88.2526 2.356 87.8326 2.188 87.1606 2.116L85.4686 1.936L85.6486 0.603999L91.6966 0.423999L92.0566 0.747999V24.94C92.0566 25.516 92.1286 25.912 92.2726 26.128C92.4406 26.32 92.7646 26.464 93.2446 26.56L95.0086 26.812V28.072L89.3206 28.324L88.8886 25.372H88.7806C88.3006 26.068 87.7606 26.656 87.1606 27.136C86.5606 27.592 85.9006 27.928 85.1806 28.144C84.4846 28.384 83.7166 28.504 82.8766 28.504ZM83.9206 26.344C84.8806 26.344 85.7086 26.128 86.4046 25.696C87.1246 25.264 87.6886 24.652 88.0966 23.86C88.5046 23.068 88.7086 22.132 88.7086 21.052V12.556C88.1086 12.076 87.4126 11.692 86.6206 11.404C85.8286 11.116 85.0006 10.972 84.1366 10.972C82.9846 10.972 82.0366 11.26 81.2926 11.836C80.5486 12.412 79.9846 13.288 79.6006 14.464C79.2406 15.64 79.0606 17.152 79.0606 19C79.0606 20.632 79.2406 22 79.6006 23.104C79.9846 24.184 80.5366 25 81.2566 25.552C82.0006 26.08 82.8886 26.344 83.9206 26.344ZM115.401 28.504C113.697 28.504 112.209 28.132 110.937 27.388C109.689 26.644 108.717 25.576 108.021 24.184C107.325 22.768 106.977 21.088 106.977 19.144C106.977 17.08 107.337 15.304 108.057 13.816C108.777 12.328 109.797 11.188 111.117 10.396C112.437 9.58 113.961 9.172 115.689 9.172C117.009 9.172 118.161 9.436 119.145 9.964C120.129 10.492 120.897 11.236 121.449 12.196C122.001 13.156 122.277 14.284 122.277 15.58C122.277 16.036 122.241 16.516 122.169 17.02C122.121 17.524 122.025 18.052 121.881 18.604H110.577C110.577 20.212 110.817 21.568 111.297 22.672C111.777 23.752 112.449 24.568 113.313 25.12C114.177 25.648 115.185 25.912 116.337 25.912C117.273 25.912 118.173 25.732 119.037 25.372C119.925 25.012 120.753 24.448 121.521 23.68L122.493 24.616C121.629 25.888 120.573 26.86 119.325 27.532C118.101 28.18 116.793 28.504 115.401 28.504ZM110.577 17.056H118.785C118.809 16.84 118.821 16.6 118.821 16.336C118.845 16.048 118.857 15.748 118.857 15.436C118.857 13.756 118.557 12.532 117.957 11.764C117.381 10.996 116.505 10.612 115.329 10.612C114.417 10.612 113.625 10.852 112.953 11.332C112.305 11.788 111.777 12.496 111.369 13.456C110.961 14.392 110.697 15.592 110.577 17.056ZM135.052 28V26.704L136.78 26.416C137.164 26.344 137.416 26.2 137.536 25.984C137.656 25.744 137.716 25.312 137.716 24.688V13.564C137.716 12.724 137.644 12.16 137.5 11.872C137.356 11.56 137.02 11.38 136.492 11.332L134.728 11.116L134.908 9.82L140.164 9.46L140.524 9.676L140.776 13.024H140.848C141.496 11.776 142.276 10.828 143.188 10.18C144.1 9.508 145.084 9.172 146.14 9.172C147.268 9.172 148.168 9.472 148.84 10.072C149.512 10.672 149.848 11.476 149.848 12.484C149.848 13.036 149.752 13.516 149.56 13.924C149.392 14.332 149.128 14.644 148.768 14.86C148.432 15.076 148 15.184 147.472 15.184C146.776 15.184 146.248 15.04 145.888 14.752C145.528 14.464 145.348 14.092 145.348 13.636C145.348 13.42 145.384 13.204 145.456 12.988C145.528 12.772 145.624 12.532 145.744 12.268C145.888 12.004 146.056 11.704 146.248 11.368C145.672 11.128 145.084 11.104 144.484 11.296C143.884 11.464 143.32 11.8 142.792 12.304C142.288 12.808 141.868 13.42 141.532 14.14C141.22 14.86 141.064 15.652 141.064 16.516V24.76C141.064 25.336 141.112 25.732 141.208 25.948C141.328 26.14 141.58 26.26 141.964 26.308L145.06 26.74V28H135.052ZM161.753 28V26.74L163.481 26.452C163.865 26.38 164.117 26.236 164.237 26.02C164.357 25.78 164.417 25.348 164.417 24.724V13.528C164.417 12.688 164.345 12.124 164.201 11.836C164.057 11.548 163.721 11.368 163.193 11.296L161.429 11.08L161.609 9.82L166.973 9.46L167.297 9.676L167.477 12.988H167.549C168.173 11.788 169.049 10.852 170.177 10.18C171.305 9.508 172.505 9.172 173.777 9.172C175.025 9.172 176.081 9.412 176.945 9.892C177.809 10.348 178.457 11.032 178.889 11.944C179.345 12.856 179.573 13.984 179.573 15.328V25.012C179.573 25.54 179.645 25.9 179.789 26.092C179.933 26.284 180.233 26.416 180.689 26.488L182.381 26.74V28H173.561V26.776L175.145 26.524C175.601 26.428 175.889 26.284 176.009 26.092C176.153 25.9 176.225 25.54 176.225 25.012V15.976C176.225 14.848 176.105 13.948 175.865 13.276C175.649 12.604 175.277 12.124 174.749 11.836C174.245 11.524 173.549 11.368 172.661 11.368C171.677 11.368 170.813 11.572 170.069 11.98C169.349 12.388 168.785 12.964 168.377 13.708C167.969 14.452 167.765 15.328 167.765 16.336V24.868C167.765 25.396 167.825 25.768 167.945 25.984C168.065 26.2 168.305 26.344 168.665 26.416L170.573 26.776V28H161.753ZM217.031 28.504C215.495 28.504 214.271 28.072 213.359 27.208C212.447 26.32 211.991 25.132 211.991 23.644C211.991 22.372 212.315 21.34 212.963 20.548C213.611 19.732 214.679 19.108 216.167 18.676C217.679 18.244 219.707 17.98 222.251 17.884V14.788C222.251 13.804 222.119 13 221.855 12.376C221.591 11.752 221.183 11.296 220.631 11.008C220.079 10.72 219.359 10.576 218.471 10.576C217.751 10.576 217.043 10.684 216.347 10.9C215.675 11.116 215.183 11.404 214.871 11.764C215.159 12.148 215.387 12.496 215.555 12.808C215.723 13.096 215.843 13.348 215.915 13.564C216.011 13.756 216.059 13.924 216.059 14.068C216.059 14.524 215.867 14.908 215.483 15.22C215.123 15.532 214.655 15.688 214.079 15.688C213.431 15.688 212.927 15.532 212.567 15.22C212.231 14.884 212.063 14.416 212.063 13.816C212.063 13 212.375 12.244 212.999 11.548C213.647 10.828 214.487 10.252 215.519 9.82C216.551 9.388 217.679 9.172 218.903 9.172C220.415 9.172 221.663 9.412 222.647 9.892C223.631 10.348 224.363 11.056 224.843 12.016C225.347 12.976 225.599 14.188 225.599 15.652V24.688C225.599 25.264 225.743 25.684 226.031 25.948C226.319 26.212 226.715 26.344 227.219 26.344C227.483 26.344 227.747 26.32 228.011 26.272C228.299 26.2 228.611 26.104 228.947 25.984L229.235 26.992C228.779 27.472 228.239 27.844 227.615 28.108C227.015 28.372 226.439 28.504 225.887 28.504C224.855 28.504 224.063 28.228 223.511 27.676C222.959 27.124 222.623 26.296 222.503 25.192C222.071 25.96 221.579 26.596 221.027 27.1C220.499 27.58 219.899 27.928 219.227 28.144C218.579 28.384 217.847 28.504 217.031 28.504ZM218.435 26.38C219.179 26.38 219.827 26.212 220.379 25.876C220.955 25.54 221.411 25.084 221.747 24.508C222.083 23.908 222.251 23.236 222.251 22.492V19.288C220.691 19.288 219.407 19.432 218.399 19.72C217.391 19.984 216.647 20.404 216.167 20.98C215.711 21.556 215.483 22.312 215.483 23.248C215.483 24.232 215.747 25 216.275 25.552C216.803 26.104 217.523 26.38 218.435 26.38ZM240.659 28V26.74L242.387 26.452C242.771 26.38 243.023 26.236 243.143 26.02C243.263 25.78 243.323 25.348 243.323 24.724V13.528C243.323 12.688 243.251 12.124 243.107 11.836C242.963 11.548 242.627 11.368 242.099 11.296L240.335 11.08L240.515 9.82L245.879 9.46L246.203 9.676L246.383 12.988H246.455C247.079 11.788 247.955 10.852 249.083 10.18C250.211 9.508 251.411 9.172 252.683 9.172C253.931 9.172 254.987 9.412 255.851 9.892C256.715 10.348 257.363 11.032 257.795 11.944C258.251 12.856 258.479 13.984 258.479 15.328V25.012C258.479 25.54 258.551 25.9 258.695 26.092C258.839 26.284 259.139 26.416 259.595 26.488L261.287 26.74V28H252.467V26.776L254.051 26.524C254.507 26.428 254.795 26.284 254.915 26.092C255.059 25.9 255.131 25.54 255.131 25.012V15.976C255.131 14.848 255.011 13.948 254.771 13.276C254.555 12.604 254.183 12.124 253.655 11.836C253.151 11.524 252.455 11.368 251.567 11.368C250.583 11.368 249.719 11.572 248.975 11.98C248.255 12.388 247.691 12.964 247.283 13.708C246.875 14.452 246.671 15.328 246.671 16.336V24.868C246.671 25.396 246.731 25.768 246.851 25.984C246.971 26.2 247.211 26.344 247.571 26.416L249.479 26.776V28H240.659ZM280.96 28.504C279.4 28.504 278.068 28.156 276.964 27.46C275.884 26.74 275.044 25.708 274.444 24.364C273.868 22.996 273.58 21.34 273.58 19.396C273.58 17.284 273.928 15.472 274.624 13.96C275.344 12.424 276.352 11.248 277.648 10.432C278.968 9.592 280.528 9.172 282.328 9.172C283.144 9.172 283.948 9.28 284.74 9.496C285.556 9.712 286.24 10 286.792 10.36V4.24C286.792 3.424 286.696 2.884 286.504 2.62C286.336 2.356 285.916 2.188 285.244 2.116L283.552 1.936L283.732 0.603999L289.78 0.423999L290.14 0.747999V24.94C290.14 25.516 290.212 25.912 290.356 26.128C290.524 26.32 290.848 26.464 291.328 26.56L293.092 26.812V28.072L287.404 28.324L286.972 25.372H286.864C286.384 26.068 285.844 26.656 285.244 27.136C284.644 27.592 283.984 27.928 283.264 28.144C282.568 28.384 281.8 28.504 280.96 28.504ZM282.004 26.344C282.964 26.344 283.792 26.128 284.488 25.696C285.208 25.264 285.772 24.652 286.18 23.86C286.588 23.068 286.792 22.132 286.792 21.052V12.556C286.192 12.076 285.496 11.692 284.704 11.404C283.912 11.116 283.084 10.972 282.22 10.972C281.068 10.972 280.12 11.26 279.376 11.836C278.632 12.412 278.068 13.288 277.684 14.464C277.324 15.64 277.144 17.152 277.144 19C277.144 20.632 277.324 22 277.684 23.104C278.068 24.184 278.62 25 279.34 25.552C280.084 26.08 280.972 26.344 282.004 26.344ZM81.9307 72.504C80.2747 72.504 78.8227 72.132 77.5747 71.388C76.3267 70.62 75.3547 69.54 74.6587 68.148C73.9867 66.756 73.6507 65.076 73.6507 63.108C73.6507 61.068 74.0107 59.316 74.7307 57.852C75.4747 56.364 76.5067 55.212 77.8267 54.396C79.1467 53.58 80.6707 53.172 82.3987 53.172C83.5987 53.172 84.6667 53.376 85.6027 53.784C86.5627 54.192 87.3067 54.744 87.8347 55.44C88.3867 56.112 88.6627 56.88 88.6627 57.744C88.6627 58.224 88.5667 58.644 88.3747 59.004C88.2067 59.34 87.9547 59.604 87.6187 59.796C87.2827 59.988 86.8747 60.084 86.3947 60.084C85.7227 60.084 85.2067 59.928 84.8467 59.616C84.4867 59.28 84.3067 58.848 84.3067 58.32C84.3067 58.008 84.3907 57.66 84.5587 57.276C84.7507 56.868 85.0507 56.328 85.4587 55.656C85.0027 55.296 84.5227 55.056 84.0187 54.936C83.5387 54.792 82.9387 54.72 82.2187 54.72C81.2587 54.72 80.4067 55.02 79.6627 55.62C78.9187 56.196 78.3307 57.048 77.8987 58.176C77.4667 59.28 77.2507 60.636 77.2507 62.244C77.2507 64.644 77.7547 66.516 78.7627 67.86C79.7947 69.18 81.1867 69.84 82.9387 69.84C83.9707 69.84 84.8947 69.66 85.7107 69.3C86.5267 68.94 87.2347 68.46 87.8347 67.86L88.7347 68.796C87.9667 69.972 86.9947 70.884 85.8187 71.532C84.6427 72.18 83.3467 72.504 81.9307 72.504ZM109.765 72.504C108.013 72.504 106.477 72.132 105.157 71.388C103.861 70.62 102.853 69.552 102.133 68.184C101.437 66.792 101.089 65.148 101.089 63.252C101.089 61.164 101.461 59.376 102.205 57.888C102.949 56.376 104.005 55.212 105.373 54.396C106.765 53.58 108.397 53.172 110.269 53.172C111.997 53.172 113.485 53.544 114.733 54.288C116.005 55.032 116.989 56.1 117.685 57.492C118.381 58.86 118.729 60.48 118.729 62.352C118.729 64.416 118.357 66.216 117.613 67.752C116.893 69.264 115.861 70.44 114.517 71.28C113.173 72.096 111.589 72.504 109.765 72.504ZM110.305 70.812C111.337 70.812 112.201 70.536 112.897 69.984C113.617 69.432 114.157 68.592 114.517 67.464C114.877 66.336 115.057 64.92 115.057 63.216C115.057 61.848 114.937 60.648 114.697 59.616C114.457 58.56 114.097 57.684 113.617 56.988C113.161 56.268 112.597 55.728 111.925 55.368C111.253 54.984 110.497 54.792 109.657 54.792C108.601 54.792 107.701 55.068 106.957 55.62C106.237 56.148 105.685 56.952 105.301 58.032C104.917 59.112 104.725 60.492 104.725 62.172C104.725 64.044 104.953 65.628 105.409 66.924C105.865 68.196 106.513 69.168 107.353 69.84C108.193 70.488 109.177 70.812 110.305 70.812ZM131.263 72V70.776L142.171 55.116H137.419C136.483 55.116 135.751 55.236 135.223 55.476C134.719 55.692 134.299 56.124 133.963 56.772C133.651 57.42 133.315 58.344 132.955 59.544L131.407 59.688L131.839 53.676H145.879V54.972L135.079 70.488H139.687C140.455 70.488 141.091 70.428 141.595 70.308C142.099 70.188 142.519 69.96 142.855 69.624C143.191 69.264 143.503 68.76 143.791 68.112C144.079 67.44 144.391 66.564 144.727 65.484H146.203L145.699 72H131.263ZM160.905 80.28C159.801 80.28 158.925 80.016 158.277 79.488C157.653 78.984 157.341 78.3 157.341 77.436C157.341 76.788 157.545 76.236 157.953 75.78C158.361 75.348 158.901 75.132 159.573 75.132C160.125 75.132 160.569 75.252 160.905 75.492C161.265 75.756 161.457 76.104 161.481 76.536C161.505 76.728 161.493 76.992 161.445 77.328C161.421 77.664 161.349 78.12 161.229 78.696C161.733 78.72 162.213 78.612 162.669 78.372C163.125 78.156 163.581 77.7 164.037 77.004C164.517 76.332 165.045 75.312 165.621 73.944L166.377 72.108L160.113 57.132C159.825 56.412 159.585 55.944 159.393 55.728C159.225 55.512 158.961 55.356 158.601 55.26L157.341 54.972L157.629 53.676H166.161V54.9L164.433 55.152C163.977 55.2 163.677 55.344 163.533 55.584C163.413 55.824 163.485 56.28 163.749 56.952L168.069 67.824H168.213L172.461 57.132C172.701 56.556 172.749 56.124 172.605 55.836C172.485 55.524 172.149 55.32 171.597 55.224L170.121 54.9L170.373 53.676H177.285V54.936L176.025 55.188C175.641 55.284 175.341 55.44 175.125 55.656C174.909 55.872 174.645 56.364 174.333 57.132L167.529 73.8C167.025 75.072 166.521 76.128 166.017 76.968C165.537 77.808 165.033 78.468 164.505 78.948C163.977 79.428 163.425 79.764 162.849 79.956C162.273 80.172 161.625 80.28 160.905 80.28ZM205.461 72V70.668L207.369 70.416C207.849 70.344 208.149 70.188 208.269 69.948C208.413 69.708 208.485 69.252 208.485 68.58V48.312C208.485 47.472 208.389 46.92 208.197 46.656C208.029 46.392 207.645 46.224 207.045 46.152L205.389 45.936L205.533 44.604L211.473 44.424L211.833 44.748V68.724C211.833 69.204 211.893 69.588 212.013 69.876C212.133 70.14 212.457 70.32 212.985 70.416L214.929 70.704V72H205.461ZM227.027 72V70.668L229.043 70.38C229.499 70.332 229.787 70.188 229.907 69.948C230.027 69.684 230.087 69.228 230.087 68.58V57.636C230.087 56.772 230.003 56.196 229.835 55.908C229.691 55.62 229.355 55.44 228.827 55.368L227.063 55.152L227.243 53.856L233.075 53.532L233.435 53.712V68.724C233.435 69.228 233.495 69.612 233.615 69.876C233.735 70.14 234.035 70.308 234.515 70.38L236.531 70.704V72H227.027ZM231.239 49.644C230.567 49.644 230.003 49.428 229.547 48.996C229.091 48.564 228.863 48 228.863 47.304C228.863 46.608 229.091 46.044 229.547 45.612C230.003 45.156 230.567 44.928 231.239 44.928C231.959 44.928 232.547 45.144 233.003 45.576C233.459 46.008 233.687 46.572 233.687 47.268C233.687 47.964 233.459 48.54 233.003 48.996C232.547 49.428 231.959 49.644 231.239 49.644ZM254.884 72L249.124 57.132C248.956 56.676 248.812 56.328 248.692 56.088C248.596 55.848 248.464 55.668 248.296 55.548C248.128 55.428 247.876 55.332 247.54 55.26L246.388 54.972L246.64 53.676H255.208V54.9L253.48 55.152C253 55.2 252.712 55.356 252.616 55.62C252.52 55.884 252.58 56.328 252.796 56.952L257.152 69.012H257.332L261.58 57.204C261.772 56.628 261.82 56.184 261.724 55.872C261.652 55.536 261.328 55.32 260.752 55.224L259.24 54.9L259.528 53.676H266.404V54.936L265.108 55.188C264.7 55.284 264.388 55.452 264.172 55.692C263.98 55.908 263.74 56.4 263.452 57.168L257.908 72H254.884ZM285.554 72.504C283.85 72.504 282.362 72.132 281.09 71.388C279.842 70.644 278.87 69.576 278.174 68.184C277.478 66.768 277.13 65.088 277.13 63.144C277.13 61.08 277.49 59.304 278.21 57.816C278.93 56.328 279.95 55.188 281.27 54.396C282.59 53.58 284.114 53.172 285.842 53.172C287.162 53.172 288.314 53.436 289.298 53.964C290.282 54.492 291.05 55.236 291.602 56.196C292.154 57.156 292.43 58.284 292.43 59.58C292.43 60.036 292.394 60.516 292.322 61.02C292.274 61.524 292.178 62.052 292.034 62.604H280.729C280.729 64.212 280.97 65.568 281.45 66.672C281.93 67.752 282.602 68.568 283.466 69.12C284.33 69.648 285.338 69.912 286.49 69.912C287.426 69.912 288.326 69.732 289.19 69.372C290.078 69.012 290.906 68.448 291.674 67.68L292.646 68.616C291.782 69.888 290.726 70.86 289.478 71.532C288.254 72.18 286.946 72.504 285.554 72.504ZM280.729 61.056H288.938C288.962 60.84 288.974 60.6 288.974 60.336C288.998 60.048 289.01 59.748 289.01 59.436C289.01 57.756 288.71 56.532 288.11 55.764C287.534 54.996 286.658 54.612 285.482 54.612C284.57 54.612 283.778 54.852 283.106 55.332C282.458 55.788 281.93 56.496 281.522 57.456C281.114 58.392 280.85 59.592 280.729 61.056ZM36.0662 116.504L35.5262 110.204L37.0382 110.096C37.3982 111.2 37.8302 112.1 38.3342 112.796C38.8382 113.492 39.4262 114.008 40.0982 114.344C40.7942 114.656 41.5502 114.812 42.3662 114.812C43.4942 114.812 44.3702 114.524 44.9942 113.948C45.6422 113.348 45.9662 112.532 45.9662 111.5C45.9662 110.876 45.8102 110.372 45.4982 109.988C45.2102 109.58 44.7422 109.232 44.0942 108.944C43.4702 108.656 42.6302 108.368 41.5742 108.08C40.6862 107.84 39.8822 107.564 39.1622 107.252C38.4662 106.94 37.8662 106.58 37.3622 106.172C36.8822 105.74 36.5222 105.236 36.2822 104.66C36.0422 104.084 35.9222 103.388 35.9222 102.572C35.9222 101.516 36.1622 100.58 36.6422 99.764C37.1462 98.948 37.8542 98.312 38.7662 97.856C39.6782 97.4 40.7702 97.172 42.0422 97.172C42.9062 97.172 43.6982 97.304 44.4182 97.568C45.1382 97.832 45.7142 98.132 46.1462 98.468L46.5062 97.172H47.6942L48.1262 103.004L46.5782 102.86C46.2662 101.588 45.7262 100.58 44.9582 99.836C44.1902 99.068 43.2302 98.684 42.0782 98.684C41.0222 98.684 40.1942 98.936 39.5942 99.44C38.9942 99.92 38.6942 100.616 38.6942 101.528C38.6942 102.152 38.8382 102.668 39.1262 103.076C39.4382 103.484 39.9062 103.832 40.5302 104.12C41.1782 104.384 41.9822 104.66 42.9422 104.948C43.9022 105.212 44.7422 105.512 45.4622 105.848C46.1822 106.16 46.7822 106.532 47.2622 106.964C47.7662 107.396 48.1382 107.912 48.3782 108.512C48.6422 109.088 48.7742 109.772 48.7742 110.564C48.7742 111.74 48.4982 112.784 47.9462 113.696C47.3942 114.584 46.6382 115.28 45.6782 115.784C44.7182 116.264 43.5902 116.504 42.2942 116.504C41.3582 116.504 40.4942 116.384 39.7022 116.144C38.9102 115.928 38.2262 115.592 37.6502 115.136L37.2182 116.504H36.0662ZM68.1191 116.504C67.1111 116.504 66.2591 116.324 65.5631 115.964C64.8671 115.58 64.3511 114.992 64.0151 114.2C63.6791 113.408 63.5111 112.4 63.5111 111.176V99.368H60.7391V98C61.6031 97.928 62.2991 97.688 62.8271 97.28C63.3791 96.872 63.8111 96.236 64.1231 95.372C64.4351 94.484 64.6391 93.32 64.7351 91.88L66.4631 91.664L66.8591 91.844V97.676H72.3671V99.368H66.8591V110.924C66.8591 111.98 67.0511 112.772 67.4351 113.3C67.8431 113.804 68.4791 114.056 69.3431 114.056C69.9671 114.056 70.5671 113.948 71.1431 113.732C71.7191 113.516 72.2711 113.192 72.7991 112.76L73.4831 113.696C72.7391 114.608 71.9231 115.304 71.0351 115.784C70.1471 116.264 69.1751 116.504 68.1191 116.504ZM90.0681 116.504C88.5321 116.504 87.3081 116.072 86.3961 115.208C85.4841 114.32 85.0281 113.132 85.0281 111.644C85.0281 110.372 85.3521 109.34 86.0001 108.548C86.6481 107.732 87.7161 107.108 89.2041 106.676C90.7161 106.244 92.7441 105.98 95.2881 105.884V102.788C95.2881 101.804 95.1561 101 94.8921 100.376C94.6281 99.752 94.2201 99.296 93.6681 99.008C93.1161 98.72 92.3961 98.576 91.5081 98.576C90.7881 98.576 90.0801 98.684 89.3841 98.9C88.7121 99.116 88.2201 99.404 87.9081 99.764C88.1961 100.148 88.4241 100.496 88.5921 100.808C88.7601 101.096 88.8801 101.348 88.9521 101.564C89.0481 101.756 89.0961 101.924 89.0961 102.068C89.0961 102.524 88.9041 102.908 88.5201 103.22C88.1601 103.532 87.6921 103.688 87.1161 103.688C86.4681 103.688 85.9641 103.532 85.6041 103.22C85.2681 102.884 85.1001 102.416 85.1001 101.816C85.1001 101 85.4121 100.244 86.0361 99.548C86.6841 98.828 87.5241 98.252 88.5561 97.82C89.5881 97.388 90.7161 97.172 91.9401 97.172C93.4521 97.172 94.7001 97.412 95.6841 97.892C96.6681 98.348 97.4001 99.056 97.8801 100.016C98.3841 100.976 98.6361 102.188 98.6361 103.652V112.688C98.6361 113.264 98.7801 113.684 99.0681 113.948C99.3561 114.212 99.7521 114.344 100.256 114.344C100.52 114.344 100.784 114.32 101.048 114.272C101.336 114.2 101.648 114.104 101.984 113.984L102.272 114.992C101.816 115.472 101.276 115.844 100.652 116.108C100.052 116.372 99.4761 116.504 98.9241 116.504C97.8921 116.504 97.1001 116.228 96.5481 115.676C95.9961 115.124 95.6601 114.296 95.5401 113.192C95.1081 113.96 94.6161 114.596 94.0641 115.1C93.5361 115.58 92.9361 115.928 92.2641 116.144C91.6161 116.384 90.8841 116.504 90.0681 116.504ZM91.4721 114.38C92.2161 114.38 92.8641 114.212 93.4161 113.876C93.9921 113.54 94.4481 113.084 94.7841 112.508C95.1201 111.908 95.2881 111.236 95.2881 110.492V107.288C93.7281 107.288 92.4441 107.432 91.4361 107.72C90.4281 107.984 89.6841 108.404 89.2041 108.98C88.7481 109.556 88.5201 110.312 88.5201 111.248C88.5201 112.232 88.7841 113 89.3121 113.552C89.8401 114.104 90.5601 114.38 91.4721 114.38ZM113.696 116V114.704L115.424 114.416C115.808 114.344 116.06 114.2 116.18 113.984C116.3 113.744 116.36 113.312 116.36 112.688V101.564C116.36 100.724 116.288 100.16 116.144 99.872C116 99.56 115.664 99.38 115.136 99.332L113.372 99.116L113.552 97.82L118.808 97.46L119.168 97.676L119.42 101.024H119.492C120.14 99.776 120.92 98.828 121.832 98.18C122.744 97.508 123.728 97.172 124.784 97.172C125.912 97.172 126.812 97.472 127.484 98.072C128.156 98.672 128.492 99.476 128.492 100.484C128.492 101.036 128.396 101.516 128.204 101.924C128.036 102.332 127.772 102.644 127.412 102.86C127.076 103.076 126.644 103.184 126.116 103.184C125.42 103.184 124.892 103.04 124.532 102.752C124.172 102.464 123.992 102.092 123.992 101.636C123.992 101.42 124.028 101.204 124.1 100.988C124.172 100.772 124.268 100.532 124.388 100.268C124.532 100.004 124.7 99.704 124.892 99.368C124.316 99.128 123.728 99.104 123.128 99.296C122.528 99.464 121.964 99.8 121.436 100.304C120.932 100.808 120.512 101.42 120.176 102.14C119.864 102.86 119.708 103.652 119.708 104.516V112.76C119.708 113.336 119.756 113.732 119.852 113.948C119.972 114.14 120.224 114.26 120.608 114.308L123.704 114.74V116H113.696ZM147.236 116.504C146.228 116.504 145.376 116.324 144.68 115.964C143.984 115.58 143.468 114.992 143.132 114.2C142.796 113.408 142.628 112.4 142.628 111.176V99.368H139.856V98C140.72 97.928 141.416 97.688 141.944 97.28C142.496 96.872 142.928 96.236 143.24 95.372C143.552 94.484 143.756 93.32 143.852 91.88L145.58 91.664L145.976 91.844V97.676H151.484V99.368H145.976V110.924C145.976 111.98 146.168 112.772 146.552 113.3C146.96 113.804 147.596 114.056 148.46 114.056C149.084 114.056 149.684 113.948 150.26 113.732C150.836 113.516 151.388 113.192 151.916 112.76L152.6 113.696C151.856 114.608 151.04 115.304 150.152 115.784C149.264 116.264 148.292 116.504 147.236 116.504ZM180.814 116V114.704L182.758 114.416C183.214 114.368 183.514 114.224 183.658 113.984C183.802 113.744 183.874 113.276 183.874 112.58V99.368H181.066V98.072L183.874 97.748V96.38C183.874 95.036 184.018 93.836 184.306 92.78C184.618 91.724 185.05 90.836 185.602 90.116C186.178 89.372 186.874 88.808 187.69 88.424C188.506 88.04 189.43 87.848 190.462 87.848C191.47 87.848 192.346 87.992 193.09 88.28C193.834 88.568 194.41 88.964 194.818 89.468C195.226 89.972 195.43 90.56 195.43 91.232C195.43 91.856 195.238 92.384 194.854 92.816C194.47 93.248 193.966 93.464 193.342 93.464C192.766 93.464 192.31 93.344 191.974 93.104C191.638 92.84 191.47 92.504 191.47 92.096C191.47 91.808 191.53 91.508 191.65 91.196C191.794 90.884 192.07 90.416 192.478 89.792C192.214 89.648 191.89 89.528 191.506 89.432C191.122 89.336 190.738 89.288 190.354 89.288C189.634 89.288 189.034 89.456 188.554 89.792C188.098 90.128 187.762 90.656 187.546 91.376C187.33 92.096 187.222 93.032 187.222 94.184V97.676H192.478V99.368H187.222V112.724C187.222 113.3 187.294 113.708 187.438 113.948C187.606 114.164 187.918 114.296 188.374 114.344L191.398 114.704V116H180.814ZM204.607 116V114.704L206.335 114.416C206.719 114.344 206.971 114.2 207.091 113.984C207.211 113.744 207.271 113.312 207.271 112.688V101.564C207.271 100.724 207.199 100.16 207.055 99.872C206.911 99.56 206.575 99.38 206.047 99.332L204.283 99.116L204.463 97.82L209.719 97.46L210.079 97.676L210.331 101.024H210.403C211.051 99.776 211.831 98.828 212.743 98.18C213.655 97.508 214.639 97.172 215.695 97.172C216.823 97.172 217.723 97.472 218.395 98.072C219.067 98.672 219.403 99.476 219.403 100.484C219.403 101.036 219.307 101.516 219.115 101.924C218.947 102.332 218.683 102.644 218.323 102.86C217.987 103.076 217.555 103.184 217.027 103.184C216.331 103.184 215.803 103.04 215.443 102.752C215.083 102.464 214.903 102.092 214.903 101.636C214.903 101.42 214.939 101.204 215.011 100.988C215.083 100.772 215.179 100.532 215.299 100.268C215.443 100.004 215.611 99.704 215.803 99.368C215.227 99.128 214.639 99.104 214.039 99.296C213.439 99.464 212.875 99.8 212.347 100.304C211.843 100.808 211.423 101.42 211.087 102.14C210.775 102.86 210.619 103.652 210.619 104.516V112.76C210.619 113.336 210.667 113.732 210.763 113.948C210.883 114.14 211.135 114.26 211.519 114.308L214.615 114.74V116H204.607ZM239.488 116.504C237.736 116.504 236.2 116.132 234.88 115.388C233.584 114.62 232.576 113.552 231.856 112.184C231.16 110.792 230.812 109.148 230.812 107.252C230.812 105.164 231.184 103.376 231.928 101.888C232.672 100.376 233.728 99.212 235.096 98.396C236.488 97.58 238.12 97.172 239.992 97.172C241.72 97.172 243.208 97.544 244.456 98.288C245.728 99.032 246.712 100.1 247.408 101.492C248.104 102.86 248.452 104.48 248.452 106.352C248.452 108.416 248.08 110.216 247.336 111.752C246.616 113.264 245.584 114.44 244.24 115.28C242.896 116.096 241.312 116.504 239.488 116.504ZM240.028 114.812C241.06 114.812 241.924 114.536 242.62 113.984C243.34 113.432 243.88 112.592 244.24 111.464C244.6 110.336 244.78 108.92 244.78 107.216C244.78 105.848 244.66 104.648 244.42 103.616C244.18 102.56 243.82 101.684 243.34 100.988C242.884 100.268 242.32 99.728 241.648 99.368C240.976 98.984 240.22 98.792 239.38 98.792C238.324 98.792 237.424 99.068 236.68 99.62C235.96 100.148 235.408 100.952 235.024 102.032C234.64 103.112 234.448 104.492 234.448 106.172C234.448 108.044 234.676 109.628 235.132 110.924C235.588 112.196 236.236 113.168 237.076 113.84C237.916 114.488 238.9 114.812 240.028 114.812ZM261.348 116V114.74L263.076 114.452C263.46 114.38 263.712 114.236 263.832 114.02C263.952 113.78 264.012 113.348 264.012 112.724V101.528C264.012 100.688 263.94 100.124 263.796 99.836C263.652 99.548 263.316 99.368 262.788 99.296L261.024 99.08L261.204 97.82L266.568 97.46L266.892 97.676L267.072 100.988H267.144C267.552 100.22 268.068 99.548 268.692 98.972C269.34 98.396 270.036 97.952 270.78 97.64C271.548 97.328 272.328 97.172 273.12 97.172C274.512 97.172 275.664 97.496 276.576 98.144C277.488 98.768 278.124 99.728 278.484 101.024C279.036 99.848 279.864 98.912 280.968 98.216C282.072 97.52 283.248 97.172 284.496 97.172C285.696 97.172 286.716 97.412 287.556 97.892C288.42 98.372 289.068 99.068 289.5 99.98C289.932 100.892 290.148 102.008 290.148 103.328V113.012C290.148 113.54 290.22 113.9 290.364 114.092C290.508 114.284 290.808 114.416 291.264 114.488L292.956 114.74V116H284.424V114.776L285.72 114.524C286.152 114.428 286.44 114.284 286.584 114.092C286.728 113.9 286.8 113.54 286.8 113.012V103.976C286.8 102.848 286.692 101.948 286.476 101.276C286.26 100.604 285.9 100.124 285.396 99.836C284.916 99.524 284.256 99.368 283.416 99.368C282.504 99.368 281.7 99.572 281.004 99.98C280.308 100.388 279.756 100.964 279.348 101.708C278.964 102.428 278.772 103.292 278.772 104.3V112.868C278.772 113.372 278.82 113.732 278.916 113.948C279.012 114.164 279.252 114.32 279.636 114.416L281.292 114.776V116H273.012V114.776L274.308 114.524C274.74 114.428 275.028 114.284 275.172 114.092C275.316 113.9 275.388 113.54 275.388 113.012V103.976C275.388 102.824 275.28 101.912 275.064 101.24C274.848 100.568 274.5 100.088 274.02 99.8C273.54 99.512 272.88 99.368 272.04 99.368C271.128 99.368 270.312 99.584 269.592 100.016C268.896 100.424 268.344 101 267.936 101.744C267.552 102.488 267.36 103.364 267.36 104.372V112.868C267.36 113.42 267.42 113.792 267.54 113.984C267.66 114.176 267.9 114.32 268.26 114.416L269.88 114.776V116H261.348ZM202.357 160V158.74L204.085 158.452C204.469 158.38 204.721 158.236 204.841 158.02C204.961 157.78 205.021 157.348 205.021 156.724V145.528C205.021 144.688 204.949 144.124 204.805 143.836C204.661 143.548 204.325 143.368 203.797 143.296L202.033 143.08L202.213 141.82L207.577 141.46L207.901 141.676L208.081 144.988H208.153C208.777 143.788 209.653 142.852 210.781 142.18C211.909 141.508 213.109 141.172 214.381 141.172C215.629 141.172 216.685 141.412 217.549 141.892C218.413 142.348 219.061 143.032 219.493 143.944C219.949 144.856 220.177 145.984 220.177 147.328V157.012C220.177 157.54 220.249 157.9 220.393 158.092C220.537 158.284 220.837 158.416 221.293 158.488L222.985 158.74V160H214.165V158.776L215.749 158.524C216.205 158.428 216.493 158.284 216.613 158.092C216.757 157.9 216.829 157.54 216.829 157.012V147.976C216.829 146.848 216.709 145.948 216.469 145.276C216.253 144.604 215.881 144.124 215.353 143.836C214.849 143.524 214.153 143.368 213.265 143.368C212.281 143.368 211.417 143.572 210.673 143.98C209.953 144.388 209.389 144.964 208.981 145.708C208.573 146.452 208.369 147.328 208.369 148.336V156.868C208.369 157.396 208.429 157.768 208.549 157.984C208.669 158.2 208.909 158.344 209.269 158.416L211.177 158.776V160H202.357ZM243.918 160.504C242.166 160.504 240.63 160.132 239.31 159.388C238.014 158.62 237.006 157.552 236.286 156.184C235.59 154.792 235.242 153.148 235.242 151.252C235.242 149.164 235.614 147.376 236.358 145.888C237.102 144.376 238.158 143.212 239.526 142.396C240.918 141.58 242.55 141.172 244.422 141.172C246.15 141.172 247.638 141.544 248.886 142.288C250.158 143.032 251.142 144.1 251.838 145.492C252.534 146.86 252.882 148.48 252.882 150.352C252.882 152.416 252.51 154.216 251.766 155.752C251.046 157.264 250.014 158.44 248.67 159.28C247.326 160.096 245.742 160.504 243.918 160.504ZM244.458 158.812C245.49 158.812 246.354 158.536 247.05 157.984C247.77 157.432 248.31 156.592 248.67 155.464C249.03 154.336 249.21 152.92 249.21 151.216C249.21 149.848 249.09 148.648 248.85 147.616C248.61 146.56 248.25 145.684 247.77 144.988C247.314 144.268 246.75 143.728 246.078 143.368C245.406 142.984 244.65 142.792 243.81 142.792C242.754 142.792 241.854 143.068 241.11 143.62C240.39 144.148 239.838 144.952 239.454 146.032C239.07 147.112 238.878 148.492 238.878 150.172C238.878 152.044 239.106 153.628 239.562 154.924C240.018 156.196 240.666 157.168 241.506 157.84C242.346 158.488 243.33 158.812 244.458 158.812ZM271.537 160L266.857 145.096C266.737 144.688 266.617 144.364 266.497 144.124C266.377 143.884 266.221 143.704 266.029 143.584C265.861 143.44 265.609 143.332 265.273 143.26L264.121 142.972L264.373 141.676H272.761V142.9L271.069 143.116C270.637 143.188 270.373 143.332 270.277 143.548C270.181 143.764 270.229 144.22 270.421 144.916L273.805 156.976H273.949L278.197 141.676H281.329L285.649 156.94H285.793L289.105 145.204C289.297 144.556 289.333 144.088 289.213 143.8C289.117 143.512 288.805 143.32 288.277 143.224L286.837 142.9L287.053 141.676H293.893V142.936L292.597 143.224C292.141 143.296 291.805 143.464 291.589 143.728C291.373 143.968 291.157 144.448 290.941 145.168L286.477 160H283.237L279.097 145.312H278.953L274.885 160H271.537Z" fill="black"/>
</svg>
