<svg width="80" height="80" viewBox="0 0 80 80" fill="none" xmlns="http://www.w3.org/2000/svg">
<g clip-path="url(#clip0_37_393)">
<circle opacity="0.8" cx="40" cy="40" r="40" fill="#9A9480"/>
<path d="M19.8142 54V52.488L21.4462 52.296C21.7662 52.264 21.9822 52.144 22.0942 51.936C22.2062 51.728 22.2622 51.432 22.2622 51.048V38.832H21.3502C20.8702 38.832 20.4542 38.888 20.1022 39C19.7662 39.112 19.4702 39.304 19.2142 39.576C18.9582 39.848 18.7262 40.232 18.5182 40.728C18.3262 41.208 18.1182 41.824 17.8942 42.576L15.9502 42.168L16.7182 37.08H31.7902L32.5342 42.192L30.5662 42.576C30.3742 41.824 30.1742 41.208 29.9662 40.728C29.7582 40.232 29.5262 39.848 29.2702 39.576C29.0302 39.304 28.7422 39.112 28.4062 39C28.0702 38.888 27.6702 38.832 27.2062 38.832H26.2702V51.12C26.2702 51.472 26.3182 51.744 26.4142 51.936C26.5102 52.128 26.7342 52.248 27.0862 52.296L28.6942 52.488V54H19.8142ZM40.1838 54.336C38.8238 54.336 37.6638 54.096 36.7038 53.616C35.7438 53.12 35.0078 52.408 34.4958 51.48C33.9838 50.552 33.7278 49.416 33.7278 48.072C33.7278 46.584 34.0078 45.344 34.5678 44.352C35.1438 43.36 35.9518 42.616 36.9918 42.12C38.0318 41.608 39.2398 41.352 40.6158 41.352C41.8798 41.352 42.9838 41.584 43.9278 42.048C44.8718 42.496 45.6078 43.184 46.1358 44.112C46.6798 45.024 46.9518 46.176 46.9518 47.568C46.9518 48.992 46.6798 50.208 46.1358 51.216C45.5918 52.224 44.8158 53 43.8078 53.544C42.7998 54.072 41.5918 54.336 40.1838 54.336ZM40.5198 52.488C41.0798 52.488 41.5358 52.336 41.8878 52.032C42.2398 51.712 42.4958 51.224 42.6558 50.568C42.8158 49.912 42.8958 49.072 42.8958 48.048C42.8958 47.168 42.8318 46.416 42.7038 45.792C42.5918 45.168 42.4158 44.664 42.1758 44.28C41.9518 43.896 41.6718 43.616 41.3358 43.44C41.0158 43.264 40.6478 43.176 40.2318 43.176C39.7198 43.176 39.2718 43.312 38.8878 43.584C38.5198 43.856 38.2398 44.296 38.0478 44.904C37.8558 45.496 37.7598 46.304 37.7598 47.328C37.7598 48.496 37.8558 49.464 38.0478 50.232C38.2558 51 38.5678 51.568 38.9838 51.936C39.3998 52.304 39.9118 52.488 40.5198 52.488ZM49.502 59.184V57.696L50.414 57.552C50.654 57.52 50.822 57.424 50.918 57.264C51.03 57.12 51.086 56.84 51.086 56.424V45C51.086 44.408 51.03 44.024 50.918 43.848C50.806 43.656 50.582 43.536 50.246 43.488L49.334 43.368L49.502 41.784L54.086 41.52L54.446 41.712L54.59 43.752H54.662C54.966 43.256 55.31 42.832 55.694 42.48C56.094 42.128 56.55 41.856 57.062 41.664C57.574 41.456 58.158 41.352 58.814 41.352C59.838 41.352 60.718 41.584 61.454 42.048C62.19 42.496 62.75 43.168 63.134 44.064C63.534 44.96 63.734 46.072 63.734 47.4C63.734 48.808 63.518 50.032 63.086 51.072C62.654 52.112 61.99 52.92 61.094 53.496C60.214 54.056 59.118 54.336 57.806 54.336C57.262 54.336 56.734 54.272 56.222 54.144C55.71 54.032 55.27 53.864 54.902 53.64V56.424C54.902 56.808 54.95 57.08 55.046 57.24C55.158 57.416 55.374 57.52 55.694 57.552L57.158 57.744V59.184H49.502ZM57.182 52.32C57.758 52.32 58.23 52.168 58.598 51.864C58.966 51.544 59.238 51.04 59.414 50.352C59.606 49.664 59.702 48.784 59.702 47.712C59.702 46.752 59.614 45.968 59.438 45.36C59.262 44.752 58.998 44.304 58.646 44.016C58.294 43.728 57.862 43.584 57.35 43.584C56.838 43.584 56.398 43.704 56.03 43.944C55.662 44.184 55.382 44.52 55.19 44.952C54.998 45.384 54.902 45.904 54.902 46.512V51.552C55.158 51.76 55.494 51.944 55.91 52.104C56.342 52.248 56.766 52.32 57.182 52.32Z" fill="black"/>
<path d="M33 30L41.5 21L50 30" stroke="black" stroke-width="4"/>
</g>
<defs>
<clipPath id="clip0_37_393">
<rect width="80" height="80" fill="white"/>
</clipPath>
</defs>
</svg>
