<svg width="36" height="37" viewBox="0 0 36 37" fill="none" xmlns="http://www.w3.org/2000/svg">
<path d="M31.6865 36.0197C31.2923 36.0197 30.9508 35.9291 30.6618 35.7478C30.3765 35.5665 30.1551 35.3127 29.9974 34.9864C29.8435 34.6561 29.7666 34.2673 29.7666 33.8202C29.7666 33.3166 29.8473 32.8896 30.0087 32.5392C30.1738 32.1887 30.4047 31.9228 30.7012 31.7415C31.0015 31.5562 31.3562 31.4636 31.7653 31.4636C32.1369 31.4636 32.4634 31.5502 32.7449 31.7234C33.0264 31.8926 33.246 32.1383 33.4036 32.4606C33.5613 32.7829 33.6401 33.1736 33.6401 33.6329C33.6401 33.9874 33.5969 34.3117 33.5106 34.6057C33.4243 34.8998 33.2967 35.1516 33.1278 35.3611C32.9626 35.5705 32.758 35.7337 32.5141 35.8505C32.2739 35.9633 31.998 36.0197 31.6865 36.0197ZM31.7709 35.8445C31.921 35.8445 32.0505 35.8102 32.1594 35.7417C32.272 35.6733 32.3621 35.5605 32.4296 35.4034C32.5009 35.2422 32.5535 35.0307 32.5873 34.7689C32.6248 34.503 32.6436 34.1727 32.6436 33.7779C32.6436 33.3871 32.621 33.0548 32.576 32.7809C32.5347 32.5069 32.4728 32.2854 32.3902 32.1162C32.3076 31.947 32.2063 31.8241 32.0862 31.7476C31.9661 31.671 31.8272 31.6328 31.6696 31.6328C31.5194 31.6328 31.3881 31.669 31.2755 31.7415C31.1629 31.81 31.0671 31.9248 30.9883 32.086C30.9133 32.2431 30.8551 32.4525 30.8138 32.7144C30.7763 32.9762 30.7575 33.2985 30.7575 33.6812C30.7575 34.072 30.78 34.4063 30.8251 34.6843C30.8738 34.9582 30.9414 35.1818 31.0277 35.355C31.1178 35.5242 31.2248 35.6491 31.3487 35.7297C31.4763 35.8062 31.617 35.8445 31.7709 35.8445Z" fill="#9A9480"/>
<path d="M20.8118 35.9351V35.8082L21.0651 35.7901C21.1402 35.782 21.1871 35.7558 21.2059 35.7115C21.2284 35.6672 21.2397 35.5866 21.2397 35.4698V31.9711C21.2397 31.8704 21.2284 31.7999 21.2059 31.7596C21.1834 31.7193 21.1308 31.6972 21.0482 31.6931L20.8118 31.675V31.5481H22.0053L23.9477 34.9924L23.959 34.9864V31.9953C23.959 31.8825 23.9458 31.8059 23.9196 31.7657C23.897 31.7254 23.8464 31.7032 23.7676 31.6992L23.5142 31.675V31.5481H24.5952V31.675L24.3418 31.6992C24.2705 31.7032 24.2236 31.7274 24.2011 31.7717C24.1785 31.816 24.1673 31.8986 24.1673 32.0195V35.9351H23.4917L21.4592 32.3941L21.448 32.4001V35.494C21.448 35.6027 21.4611 35.6773 21.4874 35.7175C21.5136 35.7578 21.5643 35.782 21.6394 35.7901L21.8871 35.8082V35.9351H20.8118Z" fill="#9A9480"/>
<path d="M13.6603 36.0197C13.2662 36.0197 12.9247 35.9291 12.6357 35.7478C12.3504 35.5665 12.129 35.3127 11.9713 34.9864C11.8174 34.6561 11.7405 34.2673 11.7405 33.8202C11.7405 33.3166 11.8212 32.8896 11.9826 32.5392C12.1477 32.1887 12.3786 31.9228 12.6751 31.7415C12.9753 31.5562 13.33 31.4636 13.7392 31.4636C14.1107 31.4636 14.4373 31.5502 14.7188 31.7234C15.0003 31.8926 15.2199 32.1383 15.3775 32.4606C15.5351 32.7829 15.614 33.1736 15.614 33.6329C15.614 33.9874 15.5708 34.3117 15.4845 34.6057C15.3981 34.8998 15.2705 35.1516 15.1016 35.3611C14.9365 35.5705 14.7319 35.7337 14.488 35.8505C14.2477 35.9633 13.9719 36.0197 13.6603 36.0197ZM13.7448 35.8445C13.8949 35.8445 14.0244 35.8102 14.1333 35.7417C14.2459 35.6733 14.3359 35.5605 14.4035 35.4034C14.4748 35.2422 14.5274 35.0307 14.5611 34.7689C14.5987 34.503 14.6174 34.1727 14.6174 33.7779C14.6174 33.3871 14.5949 33.0548 14.5499 32.7809C14.5086 32.5069 14.4467 32.2854 14.3641 32.1162C14.2815 31.947 14.1802 31.8241 14.0601 31.7476C13.94 31.671 13.8011 31.6328 13.6434 31.6328C13.4933 31.6328 13.3619 31.669 13.2493 31.7415C13.1367 31.81 13.041 31.9248 12.9622 32.086C12.8871 32.2431 12.829 32.4525 12.7877 32.7144C12.7501 32.9762 12.7314 33.2985 12.7314 33.6812C12.7314 34.072 12.7539 34.4063 12.7989 34.6843C12.8477 34.9582 12.9153 35.1818 13.0016 35.355C13.0917 35.5242 13.1987 35.6491 13.3225 35.7297C13.4501 35.8062 13.5909 35.8445 13.7448 35.8445Z" fill="#9A9480"/>
<path d="M3 35.9351V35.8082L3.25335 35.7719C3.32467 35.7639 3.37158 35.7377 3.3941 35.6934C3.42038 35.6491 3.43539 35.5725 3.43915 35.4638L3.63057 32.0134C3.63807 31.9046 3.62869 31.8301 3.60242 31.7898C3.5799 31.7495 3.52547 31.7234 3.43915 31.7113L3.18016 31.675V31.5481H4.60457L5.54479 34.4123L5.55605 34.4063L6.5019 31.5481H7.88127V31.675L7.62228 31.7113C7.55848 31.7193 7.51156 31.7415 7.48153 31.7777C7.45151 31.814 7.43837 31.8905 7.44212 32.0074L7.62228 35.4819C7.62979 35.5826 7.64293 35.6531 7.66169 35.6934C7.68422 35.7337 7.73301 35.7598 7.80808 35.7719L8.07269 35.8142V35.9351H6.26544V35.8082L6.54694 35.7719C6.6145 35.7598 6.66142 35.7377 6.68769 35.7055C6.71772 35.6732 6.72898 35.5967 6.72147 35.4758L6.55257 31.9711H6.54694L5.4716 35.2523H4.94237L3.83888 31.9711H3.83325L3.64746 35.4698C3.6437 35.5745 3.65121 35.6491 3.66998 35.6934C3.68874 35.7377 3.74129 35.7659 3.82762 35.778L4.0866 35.8082V35.9351H3Z" fill="#9A9480"/>
<path fill-rule="evenodd" clip-rule="evenodd" d="M15.2054 2.69037L17.8679 9.89399H33.14V27.5H3.86157L15.2054 2.69037ZM18.2375 10.894L24.0055 26.5H32.14V10.894H18.2375ZM22.9393 26.5L19.3885 16.8928L14.9317 26.5H22.9393ZM13.8294 26.5L18.8997 15.5703L15.1074 5.30962L5.41838 26.5H13.8294Z" fill="#9A9480"/>
</svg>
